<svg width="339" height="248" viewBox="0 0 339 248" fill="none" xmlns="http://www.w3.org/2000/svg">
<path d="M30.3052 120.83C30.3052 92.417 60.1122 66.9896 86.2144 62.2375C111.376 57.6596 139.919 73.4335 163.824 64.3399C180.791 57.8835 192.802 43.0115 205.094 29.6634C217.385 16.3153 232.379 3.17241 250.511 2.25185C271.059 1.20689 293.338 12.1603 303.506 30.0428C317.641 54.9228 316.147 90.4701 306.24 117.285C292.684 153.983 258.295 186.271 220.268 195.619C182.242 204.968 133.836 203.575 96.532 191.669C74.3837 184.604 60.766 178.048 50.2928 166.472C37.5094 152.34 32.4036 136.287 30.3052 120.83Z" fill="#EBEBEB"/>
<path d="M338.513 242.244C338.513 242.331 262.728 242.406 169.266 242.406C75.8034 242.406 0 242.331 0 242.244C0 242.157 75.7723 242.083 169.266 242.083C262.759 242.083 338.513 242.151 338.513 242.244Z" fill="#263238"/>
<path d="M225.243 223.609L149.278 223.261C147.104 223.253 144.953 222.817 142.948 221.978C140.943 221.139 139.122 219.914 137.591 218.372C136.06 216.831 134.848 215.003 134.024 212.993C133.2 210.983 132.781 208.831 132.79 206.66L133.593 16.4335C133.618 12.0514 135.384 7.85857 138.503 4.7769C141.621 1.69524 145.838 -0.0229282 150.225 0.000231123L226.19 0.354771C230.577 0.374524 234.776 2.13382 237.864 5.24581C240.953 8.3578 242.678 12.5677 242.659 16.9497L241.862 207.126C241.858 209.299 241.424 211.45 240.585 213.456C239.747 215.461 238.521 217.281 236.977 218.812C235.433 220.344 233.602 221.555 231.589 222.379C229.575 223.202 227.419 223.62 225.243 223.609Z" fill="#455A64"/>
<path d="M226.09 6.892L211.364 6.84224C210.883 6.85113 210.408 6.95478 209.967 7.14724C209.526 7.3397 209.127 7.6172 208.793 7.96385C208.459 8.3105 208.197 8.7195 208.022 9.16742C207.847 9.61535 207.762 10.0934 207.771 10.5742V13.2426C207.781 13.7235 207.696 14.2015 207.521 14.6494C207.346 15.0974 207.084 15.5064 206.75 15.853C206.416 16.1997 206.017 16.4772 205.576 16.6696C205.135 16.8621 204.66 16.9657 204.179 16.9746L175.461 16.7942C174.495 16.7682 173.577 16.3611 172.91 15.6619C172.243 14.9626 171.88 14.0281 171.9 13.0622V10.3939C171.92 9.42802 171.556 8.49347 170.889 7.79425C170.222 7.09503 169.305 6.68794 168.338 6.66186H163.164L150.274 6.60588C148.752 6.59769 147.243 6.88945 145.833 7.46447C144.424 8.03949 143.142 8.88648 142.06 9.95698C140.979 11.0275 140.119 12.3005 139.531 13.7032C138.942 15.1058 138.636 16.6107 138.631 18.1315L137.846 203.805C137.833 206.874 139.04 209.822 141.203 212.002C143.365 214.182 146.306 215.415 149.378 215.43L225.187 215.778C226.709 215.786 228.218 215.493 229.627 214.918C231.035 214.343 232.317 213.495 233.398 212.425C234.479 211.355 235.338 210.082 235.926 208.68C236.514 207.277 236.819 205.773 236.825 204.253L237.616 18.5794C237.631 17.0551 237.344 15.5429 236.772 14.1296C236.2 12.7164 235.355 11.4298 234.284 10.3439C233.213 9.25793 231.938 8.39397 230.532 7.8016C229.126 7.20924 227.616 6.90012 226.09 6.892Z" fill="#FAFAFA"/>
<path d="M156.868 26.4539C157.131 26.3395 157.354 26.1506 157.51 25.9106C157.666 25.6707 157.748 25.3903 157.746 25.1042C157.759 24.9163 157.733 24.7278 157.67 24.5504C157.606 24.3731 157.507 24.2106 157.379 24.073C157.25 23.9355 157.094 23.8258 156.921 23.7508C156.748 23.6758 156.562 23.6371 156.373 23.6371C156.185 23.6371 155.998 23.6758 155.826 23.7508C155.653 23.8258 155.497 23.9355 155.368 24.073C155.239 24.2106 155.14 24.3731 155.077 24.5504C155.014 24.7278 154.988 24.9163 155 25.1042C154.993 25.3929 155.073 25.6772 155.228 25.9209C155.383 26.1646 155.607 26.3566 155.872 26.4726C155.439 26.5225 155.03 26.6999 154.697 26.9823C154.365 27.2646 154.123 27.6393 154.004 28.0587C154.495 28.6197 155.171 28.9861 155.91 29.0912H156.75C157.5 28.9931 158.19 28.6288 158.693 28.0649C158.587 27.6439 158.356 27.2648 158.03 26.9772C157.705 26.6897 157.3 26.5073 156.868 26.4539Z" fill="#455A64"/>
<path d="M156.345 29.1036C156.345 29.1036 156.619 29.1036 157.093 28.9668C157.76 28.7832 158.347 28.3827 158.761 27.8285C159.064 27.4251 159.261 26.9529 159.334 26.4545C159.408 25.9561 159.357 25.4471 159.185 24.9735C158.986 24.412 158.621 23.924 158.139 23.574C157.625 23.1943 157.003 22.9893 156.364 22.9893C155.725 22.9893 155.103 23.1943 154.589 23.574C154.104 23.9186 153.735 24.4023 153.531 24.9611C153.354 25.4339 153.299 25.9433 153.37 26.443C153.44 26.9427 153.635 27.4168 153.936 27.8223C154.345 28.3789 154.927 28.7837 155.592 28.973C156.065 29.1036 156.345 29.0912 156.345 29.1161C156.277 29.1256 156.208 29.1256 156.14 29.1161C155.947 29.1177 155.754 29.0947 155.567 29.0476C154.972 28.9075 154.43 28.5978 154.008 28.1562C153.586 27.7145 153.301 27.1599 153.188 26.5596C153.002 25.7468 153.139 24.8935 153.57 24.1792C154 23.4648 154.691 22.9451 155.498 22.7293C156.304 22.5134 157.163 22.6182 157.893 23.0217C158.624 23.4251 159.169 24.0958 159.415 24.8927C159.593 25.3998 159.641 25.9435 159.554 26.4739C159.467 27.0042 159.248 27.5042 158.917 27.928C158.471 28.4964 157.842 28.8922 157.136 29.0476C156.949 29.0933 156.756 29.1142 156.563 29.1098C156.491 29.119 156.417 29.1169 156.345 29.1036Z" fill="#455A64"/>
<path d="M189.092 25.8309L163.999 25.7391L163.994 26.9893L189.088 27.0812L189.092 25.8309Z" fill="#455A64"/>
<path d="M229.527 24.3204C229.527 24.392 229.513 24.4629 229.486 24.5289C229.458 24.595 229.418 24.6549 229.367 24.7053C229.316 24.7556 229.255 24.7953 229.189 24.8222C229.122 24.849 229.051 24.8624 228.979 24.8615C228.845 24.8472 228.721 24.7836 228.63 24.6832C228.54 24.5827 228.49 24.4524 228.49 24.3173C228.49 24.1822 228.54 24.0519 228.63 23.9514C228.721 23.851 228.845 23.7874 228.979 23.773C229.052 23.7722 229.123 23.7858 229.19 23.813C229.257 23.8402 229.318 23.8805 229.369 23.9315C229.42 23.9825 229.46 24.0432 229.487 24.11C229.515 24.1767 229.528 24.2483 229.527 24.3204Z" fill="#455A64"/>
<path d="M229.521 26.2735C229.521 26.382 229.489 26.4881 229.428 26.5783C229.368 26.6684 229.282 26.7386 229.181 26.7798C229.081 26.821 228.97 26.8315 228.864 26.8099C228.758 26.7882 228.66 26.7355 228.584 26.6583C228.507 26.5811 228.456 26.483 228.435 26.3764C228.415 26.2699 228.426 26.1596 228.469 26.0597C228.511 25.9598 228.582 25.8748 228.673 25.8154C228.764 25.756 228.871 25.7249 228.979 25.7262C229.124 25.7278 229.261 25.7862 229.363 25.8887C229.464 25.9911 229.521 26.1294 229.521 26.2735Z" fill="#455A64"/>
<path d="M229.515 28.2266C229.515 28.3351 229.483 28.4412 229.422 28.5313C229.362 28.6215 229.276 28.6916 229.175 28.7329C229.075 28.7741 228.964 28.7846 228.858 28.7629C228.751 28.7413 228.654 28.6886 228.577 28.6114C228.501 28.5342 228.449 28.4361 228.429 28.3295C228.408 28.2229 228.42 28.1127 228.463 28.0128C228.505 27.9129 228.576 27.8278 228.667 27.7684C228.758 27.7091 228.865 27.678 228.973 27.6792C229.117 27.6809 229.255 27.7393 229.357 27.8417C229.458 27.9442 229.515 28.0825 229.515 28.2266Z" fill="#455A64"/>
<path d="M196.464 43.9383C196.194 43.9846 195.921 44.0054 195.648 44.0005L193.431 44.0503C191.563 44.0814 188.973 44.1 186.115 44.1C183.257 44.1 180.673 44.1001 178.799 44.0503L176.582 44.0005C176.311 44.0059 176.04 43.985 175.773 43.9383C176.039 43.8876 176.311 43.8668 176.582 43.8761L178.799 43.8201C180.667 43.8201 183.257 43.7766 186.115 43.7766C188.973 43.7766 191.557 43.7766 193.431 43.8201L195.648 43.8761C195.921 43.867 196.195 43.8878 196.464 43.9383Z" fill="#455A64"/>
<path d="M228.986 49.0201C228.986 49.1134 217.074 49.1818 202.379 49.1818C187.684 49.1818 175.754 49.1382 175.754 49.0201C175.754 48.9019 187.666 48.8583 202.36 48.8583C217.055 48.8583 228.986 48.933 228.986 49.0201Z" fill="#455A64"/>
<path d="M212.354 53.8033C212.354 53.8966 204.166 53.965 194.067 53.965C183.967 53.965 175.754 53.8966 175.754 53.8033C175.754 53.71 183.942 53.6415 194.048 53.6415C204.154 53.6415 212.354 53.7162 212.354 53.8033Z" fill="#455A64"/>
<path d="M230.038 63.1146L228.382 61.46L226.813 63.0275V58.2878H230.038V63.1146ZM228.382 61.2486L228.438 61.2983L229.889 62.76V58.406H226.956V62.6543L228.382 61.2486Z" fill="#263238"/>
<path d="M186.009 62.4988L185.43 62.2376C185.2 62.377 184.939 62.4562 184.671 62.4677C184.303 62.4678 183.947 62.3423 183.662 62.112C183.376 61.8818 183.178 61.5607 183.1 61.2023C183.022 60.8438 183.07 60.4696 183.235 60.142C183.4 59.8143 183.672 59.553 184.006 59.4015C184.341 59.25 184.717 59.2175 185.072 59.3093C185.428 59.4012 185.741 59.6119 185.96 59.9063C186.179 60.2008 186.29 60.5613 186.275 60.9277C186.26 61.2942 186.12 61.6445 185.879 61.9203L186.009 62.4988ZM184.646 59.3453C184.262 59.3699 183.902 59.5395 183.639 59.8197C183.376 60.0998 183.23 60.4695 183.23 60.8536C183.23 61.2377 183.376 61.6074 183.639 61.8875C183.902 62.1677 184.262 62.3373 184.646 62.362C184.903 62.3437 185.153 62.2648 185.374 62.1318L185.804 62.3184L185.704 61.8955C185.905 61.68 186.037 61.4103 186.085 61.1201C186.133 60.83 186.095 60.532 185.975 60.2635C185.855 59.9949 185.658 59.7676 185.41 59.6099C185.161 59.4522 184.872 59.3709 184.577 59.3764L184.646 59.3453Z" fill="#263238"/>
<path d="M189.764 62.25L189.091 60.6204L187.846 59.4759H190.885L189.764 62.25ZM188.126 59.5879L189.191 60.5644L189.764 61.9577L190.717 59.5692L188.126 59.5879Z" fill="#263238"/>
<path d="M190.817 59.4301L189.158 60.5091L189.219 60.6029L190.879 59.5239L190.817 59.4301Z" fill="#263238"/>
<path d="M181.227 59.818C181.194 59.5891 181.078 59.3806 180.9 59.2321C180.723 59.0837 180.497 59.0059 180.265 59.0136C180.034 59.0213 179.814 59.114 179.646 59.2739C179.479 59.4338 179.377 59.6496 179.359 59.8802C179.337 59.6507 179.231 59.4374 179.061 59.281C178.891 59.1247 178.67 59.0361 178.439 59.0323C178.208 59.0285 177.984 59.1096 177.809 59.2602C177.634 59.4108 177.521 59.6204 177.491 59.8491C177.445 60.1722 177.528 60.5006 177.722 60.7634C177.913 61.0234 178.137 61.2576 178.388 61.46L179.378 62.3433C179.714 62.0385 180.001 61.7524 180.331 61.4476C180.577 61.2391 180.797 61.0009 180.984 60.7385C181.18 60.4739 181.267 60.1445 181.227 59.818Z" fill="#0668B8"/>
<path d="M233.425 67.3131C233.425 67.3131 233.425 67.1265 233.425 66.7844C233.425 66.4423 233.425 65.9136 233.425 65.2418C233.425 63.8858 233.425 61.8892 233.425 59.3079C233.425 54.1391 233.394 46.6253 233.369 37.1958L233.475 37.3078L143.481 37.3575L143.643 37.1958C143.643 47.6641 143.643 57.8151 143.643 67.3131L143.487 67.1576L207.884 67.226L226.682 67.2695H231.725H233.033H233.488H233.058H231.769H226.75L207.989 67.3131L143.487 67.3877H143.332V67.2322C143.332 57.7343 143.332 47.5832 143.332 37.115V36.9532H143.5L233.494 37.0092H233.6V37.115C233.6 46.5694 233.556 54.108 233.544 59.2893C233.544 61.8643 233.544 63.8485 233.512 65.2045C233.512 65.8638 233.512 66.3738 233.512 66.7222C233.512 67.0705 233.425 67.3131 233.425 67.3131Z" fill="#263238"/>
<path d="M147.184 42.2318L147.07 62.1417L172.001 62.2852L172.116 42.3753L147.184 42.2318Z" fill="#EBEBEB"/>
<path d="M172.099 42.3709H171.619H170.256H165.169H147.192L147.342 42.2216C147.31 48.1493 147.279 54.9415 147.242 62.1256L147.086 61.9639H150.511H153.867L160.337 62.0074L172.012 62.0945L171.875 62.2314C171.937 56.2539 171.993 51.2966 172.024 47.8134C172.024 46.0842 172.074 44.7034 172.086 43.7704C172.086 43.3163 172.086 42.9556 172.086 42.7006C172.086 42.4455 172.086 42.3211 172.086 42.3211C172.092 42.4372 172.092 42.5534 172.086 42.6695C172.086 42.9245 172.086 43.2915 172.086 43.7144C172.086 44.6599 172.086 46.0158 172.086 47.7325C172.086 51.2344 172.086 56.2228 172.086 62.2314V62.3682H172.018L160.343 62.3247L153.873 62.2936H150.511H147.093L146.924 62.1318C146.974 54.9415 147.018 48.1493 147.055 42.2278V42.0848H147.198L165.256 42.2589L170.337 42.3274H171.669H172.005L172.099 42.3709Z" fill="#263238"/>
<path d="M148.043 43.4871L147.942 60.8903L171.117 61.0237L171.218 43.6204L148.043 43.4871Z" fill="#0668B8"/>
<path d="M147.921 60.8878L156.078 50.121L161.053 56.9132L164.477 53.3181L171.103 61.0184L147.921 60.8878Z" fill="#0668B8"/>
<path d="M162.694 50.1065C163.406 49.3948 163.406 48.2409 162.694 47.5292C161.981 46.8175 160.826 46.8175 160.114 47.5292C159.401 48.2409 159.401 49.3948 160.114 50.1065C160.826 50.8183 161.981 50.8183 162.694 50.1065Z" fill="#0668B8"/>
<path opacity="0.2" d="M147.921 60.8878L156.078 50.121L161.053 56.9132L164.477 53.3181L171.103 61.0184L147.921 60.8878Z" fill="black"/>
<g opacity="0.2">
<path d="M162.694 50.1065C163.406 49.3948 163.406 48.2408 162.694 47.5291C161.981 46.8174 160.826 46.8174 160.114 47.5291C159.401 48.2409 159.401 49.3948 160.114 50.1065C160.826 50.8182 161.981 50.8182 162.694 50.1065Z" fill="black"/>
</g>
<path d="M208.818 78.4345C208.706 78.4538 208.594 78.4642 208.481 78.4655H207.516L203.979 78.5153L192.292 78.5651L180.611 78.5153L177.068 78.4655H176.109C175.996 78.4648 175.884 78.4544 175.773 78.4345C175.882 78.4058 175.996 78.3932 176.109 78.3971H177.068L180.611 78.3474L192.292 78.3038L203.979 78.3474L207.51 78.3723H208.475C208.592 78.3769 208.707 78.3978 208.818 78.4345Z" fill="#455A64"/>
<path d="M228.986 83.5162C228.986 83.6032 217.074 83.6779 202.379 83.6779C187.684 83.6779 175.773 83.6032 175.773 83.5162C175.773 83.4291 187.684 83.3544 202.379 83.3544C217.074 83.3544 228.986 83.4291 228.986 83.5162Z" fill="#455A64"/>
<path d="M212.354 88.3243C212.354 88.4176 204.166 88.486 194.067 88.486C183.967 88.486 175.754 88.3927 175.754 88.3243C175.754 88.2558 183.942 88.1625 194.048 88.1625C204.154 88.1625 212.354 88.2123 212.354 88.3243Z" fill="#455A64"/>
<path d="M230.038 97.6107L228.382 95.9561L226.813 97.5236V92.7839H230.038V97.6107ZM228.382 95.7447L228.438 95.7944L229.889 97.2561V92.9021H226.956V97.1442L228.382 95.7447Z" fill="#263238"/>
<path d="M186.009 96.9949L185.43 96.7336C185.2 96.8731 184.939 96.9523 184.671 96.9638C184.35 96.9662 184.037 96.8738 183.769 96.6981C183.501 96.5225 183.292 96.2715 183.167 95.977C183.042 95.6824 183.008 95.3575 183.068 95.0433C183.128 94.7292 183.28 94.4398 183.505 94.2119C183.729 93.984 184.017 93.8278 184.33 93.763C184.644 93.6982 184.969 93.7277 185.266 93.8478C185.563 93.9679 185.817 94.1733 185.997 94.4378C186.177 94.7024 186.275 95.0143 186.277 95.3341C186.283 95.7298 186.141 96.1134 185.879 96.4102L186.009 96.9949ZM184.646 93.8351C184.262 93.8598 183.902 94.0294 183.639 94.3095C183.376 94.5897 183.23 94.9594 183.23 95.3435C183.23 95.7276 183.376 96.0972 183.639 96.3774C183.902 96.6576 184.262 96.8272 184.646 96.8518C184.903 96.8392 185.154 96.7622 185.374 96.6279L185.804 96.8207L185.704 96.3978C185.904 96.1815 186.035 95.9116 186.083 95.6214C186.131 95.3311 186.092 95.0333 185.972 94.7647C185.853 94.496 185.657 94.2684 185.409 94.1098C185.161 93.9512 184.872 93.8687 184.577 93.8724L184.646 93.8351Z" fill="#263238"/>
<path d="M189.764 96.7461L189.091 95.1165L187.846 93.972H190.885L189.764 96.7461ZM188.126 94.0839L189.191 95.0605L189.764 96.4475L190.717 94.0591L188.126 94.0839Z" fill="#263238"/>
<path d="M190.816 93.9377L189.156 95.0162L189.218 95.11L190.877 94.0316L190.816 93.9377Z" fill="#263238"/>
<path d="M181.227 94.3141C181.194 94.0853 181.078 93.8767 180.9 93.7283C180.723 93.5799 180.497 93.5021 180.265 93.5098C180.034 93.5175 179.814 93.6102 179.646 93.77C179.479 93.9299 179.377 94.1458 179.359 94.3763C179.333 94.1474 179.223 93.9363 179.051 93.783C178.878 93.6297 178.656 93.545 178.425 93.545C178.195 93.545 177.972 93.6297 177.8 93.783C177.628 93.9363 177.518 94.1474 177.491 94.3763C177.445 94.6995 177.528 95.0279 177.722 95.2907C177.913 95.5506 178.137 95.7848 178.388 95.9873L179.378 96.8643C179.714 96.5595 180.001 96.2423 180.331 95.9686C180.578 95.7638 180.798 95.5275 180.984 95.2658C181.188 94.9931 181.275 94.6509 181.227 94.3141Z" fill="#0668B8"/>
<path d="M233.425 101.809C233.425 101.809 233.425 101.623 233.425 101.274C233.425 100.926 233.425 100.41 233.425 99.7379C233.425 98.382 233.425 96.3853 233.425 93.804C233.425 88.6352 233.394 81.1214 233.369 71.6919L233.475 71.7977L143.481 71.8537L143.643 71.6919C143.643 82.1602 143.643 92.3112 143.643 101.809L143.487 101.647L207.884 101.722L226.682 101.766H231.725H233.033C233.332 101.766 233.488 101.766 233.488 101.766H233.058H231.769H226.75L207.989 101.809L143.487 101.884H143.332V101.728C143.332 92.2304 143.332 82.0793 143.332 71.6111V71.5302H143.5L233.494 71.5862H233.6V71.6919C233.6 81.1463 233.556 88.685 233.544 93.8662C233.544 96.4413 233.544 98.4255 233.512 99.7752C233.512 100.441 233.512 100.951 233.512 101.299C233.512 101.647 233.425 101.809 233.425 101.809Z" fill="#263238"/>
<path d="M147.19 76.7276L147.075 96.6375L172.006 96.7809L172.121 76.871L147.19 76.7276Z" fill="#EBEBEB"/>
<path d="M172.099 76.867H171.619H170.256H165.169H147.192L147.342 76.724C147.31 82.6516 147.279 89.4439 147.242 96.628L147.086 96.4662H148.805H150.511H153.867L160.337 96.5098L172.012 96.5969L171.875 96.7275C171.937 90.7563 171.993 85.7989 172.024 82.3157C172.024 80.5866 172.074 79.2057 172.086 78.2727C172.086 77.8187 172.086 77.4579 172.086 77.1967C172.086 76.9354 172.086 76.8235 172.086 76.8235C172.092 76.9395 172.092 77.0558 172.086 77.1718C172.086 77.4268 172.086 77.7938 172.086 78.2168C172.086 79.1622 172.086 80.5119 172.086 82.2287C172.086 85.7367 172.086 90.7252 172.086 96.7337V96.8643H172.018L160.343 96.8208H153.873H150.511H148.805H147.093C147.236 96.9638 146.887 96.6217 146.924 96.6528C146.974 89.4687 147.018 82.6765 147.055 76.7488V76.6058H147.198L165.256 76.7799L170.337 76.8484H171.669H172.018C172.068 76.8608 172.099 76.8608 172.099 76.867Z" fill="#263238"/>
<path d="M148.042 77.9891L147.942 95.3923L171.117 95.5257L171.217 78.1224L148.042 77.9891Z" fill="#0668B8"/>
<path d="M147.921 95.3839L156.078 84.6109L161.053 91.4094L164.477 87.8142L171.103 95.5146L147.921 95.3839Z" fill="#0668B8"/>
<path d="M162.698 84.6065C163.41 83.8948 163.41 82.7408 162.698 82.0291C161.985 81.3174 160.83 81.3174 160.118 82.0291C159.405 82.7409 159.405 83.8948 160.118 84.6065C160.83 85.3182 161.985 85.3182 162.698 84.6065Z" fill="#0668B8"/>
<path opacity="0.2" d="M147.921 95.3839L156.078 84.6109L161.053 91.4094L164.477 87.8142L171.103 95.5146L147.921 95.3839Z" fill="black"/>
<g opacity="0.2">
<path d="M162.698 84.6064C163.41 83.8947 163.41 82.7408 162.698 82.0291C161.985 81.3174 160.83 81.3174 160.118 82.0291C159.405 82.7408 159.405 83.8947 160.118 84.6064C160.83 85.3181 161.985 85.3181 162.698 84.6064Z" fill="black"/>
</g>
<path d="M183.039 114C182.929 114.024 182.816 114.034 182.703 114.031H181.738L178.201 114.081L166.52 114.131L154.832 114.081L151.289 114.031H150.33C150.218 114.035 150.105 114.024 149.994 114C150.104 113.972 150.217 113.962 150.33 113.969H151.289L154.832 113.913L166.52 113.87L178.201 113.913L181.738 113.969H182.703C182.816 113.963 182.929 113.973 183.039 114Z" fill="#455A64"/>
<path d="M230.038 198.418L228.382 196.757L226.813 198.294V193.554H230.038V198.418ZM228.382 196.552L228.438 196.602L229.889 198.064V193.71H226.956V197.952L228.382 196.552Z" fill="#263238"/>
<path d="M159.446 197.796L158.867 197.535C158.635 197.669 158.375 197.748 158.108 197.765C157.786 197.769 157.47 197.677 157.201 197.502C156.931 197.326 156.72 197.074 156.594 196.779C156.468 196.483 156.432 196.157 156.492 195.841C156.551 195.525 156.703 195.234 156.929 195.005C157.154 194.776 157.442 194.618 157.757 194.553C158.072 194.487 158.4 194.516 158.698 194.637C158.996 194.757 159.252 194.963 159.433 195.229C159.614 195.495 159.712 195.808 159.714 196.129C159.72 196.527 159.578 196.913 159.316 197.212L159.446 197.796ZM158.083 194.637C157.699 194.661 157.339 194.831 157.076 195.111C156.813 195.391 156.667 195.761 156.667 196.145C156.667 196.529 156.813 196.899 157.076 197.179C157.339 197.459 157.699 197.629 158.083 197.653C158.341 197.638 158.591 197.559 158.811 197.423L159.241 197.616L159.141 197.193C159.342 196.977 159.474 196.708 159.522 196.418C159.57 196.127 159.532 195.83 159.412 195.561C159.292 195.292 159.095 195.065 158.847 194.907C158.598 194.75 158.309 194.668 158.014 194.674L158.083 194.637Z" fill="#263238"/>
<path d="M163.201 197.516L162.528 195.887L161.283 194.748H164.322L163.201 197.516ZM161.563 194.854L162.628 195.837L163.201 197.224L164.154 194.835L161.563 194.854Z" fill="#263238"/>
<path d="M164.261 194.711L162.601 195.79L162.663 195.884L164.322 194.805L164.261 194.711Z" fill="#263238"/>
<path d="M154.664 195.084C154.631 194.855 154.515 194.647 154.337 194.499C154.16 194.35 153.934 194.272 153.702 194.28C153.471 194.288 153.251 194.38 153.083 194.54C152.916 194.7 152.814 194.916 152.796 195.147C152.774 194.917 152.668 194.704 152.498 194.547C152.328 194.391 152.107 194.302 151.876 194.299C151.645 194.295 151.421 194.376 151.246 194.527C151.071 194.677 150.958 194.887 150.928 195.115C150.882 195.439 150.965 195.767 151.159 196.03C151.35 196.29 151.574 196.524 151.825 196.726L152.815 197.61C153.151 197.305 153.438 197.019 153.768 196.714C154.004 196.505 154.214 196.267 154.39 196.005C154.597 195.745 154.695 195.415 154.664 195.084Z" fill="#0668B8"/>
<path d="M233.425 201.578C233.425 201.578 233.425 201.422 233.425 201.13C233.425 200.838 233.425 200.384 233.425 199.805C233.425 198.642 233.425 196.919 233.425 194.674C233.425 190.183 233.425 183.608 233.388 175.249C233.388 158.548 233.344 134.713 233.313 106.207L233.456 106.35L143.438 106.362L143.599 106.2C143.599 141.244 143.599 173.998 143.599 201.59L143.456 201.454L208.699 201.522L226.968 201.559H231.794H233.456H231.825H227.031L208.786 201.597L143.456 201.671H143.319V201.528C143.319 173.949 143.319 141.194 143.319 106.138V105.977H143.494H233.481H233.625V106.12C233.593 134.682 233.569 158.548 233.55 175.274C233.55 183.615 233.519 190.202 233.512 194.668C233.512 196.894 233.512 198.611 233.512 199.768C233.512 200.34 233.512 200.776 233.512 201.074C233.512 201.373 233.425 201.578 233.425 201.578Z" fill="#263238"/>
<path d="M226.956 183.49C226.956 183.577 209.926 183.652 188.923 183.652C167.921 183.652 150.891 183.577 150.891 183.49C150.891 183.403 167.915 183.328 188.923 183.328C209.932 183.328 226.956 183.384 226.956 183.49Z" fill="#455A64"/>
<path d="M192.292 189.188C192.292 189.275 183.027 189.349 171.595 189.349C160.162 189.349 150.891 189.275 150.891 189.188C150.891 189.101 160.156 189.026 171.595 189.026C183.033 189.026 192.292 189.088 192.292 189.188Z" fill="#455A64"/>
<path d="M219.963 173.899C221.202 173.739 222.452 173.685 223.699 173.737L223.537 173.899V173.159C223.537 172.922 223.537 172.692 223.537 172.462C223.537 172.052 223.537 171.66 223.569 171.274C223.55 170.905 223.59 170.536 223.687 170.179C223.775 170.537 223.813 170.906 223.799 171.274C223.799 171.66 223.799 172.052 223.836 172.462C223.836 172.692 223.836 172.922 223.836 173.159C223.836 173.283 223.836 173.408 223.836 173.532V173.899L223.674 174.061C222.435 174.116 221.193 174.061 219.963 173.899Z" fill="#E0E0E0"/>
<path d="M205.418 173.899C207.831 173.683 210.259 173.683 212.672 173.899C210.259 174.115 207.831 174.115 205.418 173.899Z" fill="#E0E0E0"/>
<path d="M190.91 173.899C193.323 173.683 195.75 173.683 198.164 173.899C195.75 174.115 193.323 174.115 190.91 173.899Z" fill="#E0E0E0"/>
<path d="M176.377 173.899C178.79 173.683 181.217 173.683 183.631 173.899C181.217 174.115 178.79 174.115 176.377 173.899Z" fill="#E0E0E0"/>
<path d="M161.881 173.899C164.296 173.683 166.726 173.683 169.141 173.899C166.726 174.115 164.296 174.115 161.881 173.899Z" fill="#E0E0E0"/>
<path d="M150.891 170.167C151.055 171.404 151.109 172.653 151.053 173.899L150.891 173.737H152.348L153.531 173.775C153.9 173.761 154.269 173.798 154.627 173.887C154.269 173.979 153.9 174.019 153.531 174.005L152.348 174.036H151.644H150.891L150.729 173.874C150.678 172.636 150.732 171.396 150.891 170.167Z" fill="#E0E0E0"/>
<path d="M150.891 156.788C151.107 159.013 151.107 161.255 150.891 163.48C150.675 161.255 150.675 159.013 150.891 156.788Z" fill="#E0E0E0"/>
<path d="M150.891 143.415C151.107 145.638 151.107 147.878 150.891 150.101C150.675 147.878 150.675 145.638 150.891 143.415Z" fill="#E0E0E0"/>
<path d="M150.891 130.036C151.107 132.259 151.107 134.498 150.891 136.722C150.675 134.498 150.675 132.259 150.891 130.036Z" fill="#E0E0E0"/>
<path d="M154.627 119.611C153.389 119.775 152.139 119.829 150.891 119.773C151.215 119.449 150.984 119.685 151.053 119.617V120.357C151.053 120.6 151.053 120.83 151.053 121.06C151.053 121.471 151.053 121.862 151.022 122.248C151.036 122.615 150.996 122.982 150.903 123.337C150.815 122.981 150.777 122.614 150.791 122.248C150.791 121.862 150.791 121.471 150.754 121.06C150.754 120.83 150.754 120.6 150.754 120.357V119.617C150.829 119.542 150.592 119.773 150.916 119.449C152.155 119.398 153.397 119.452 154.627 119.611Z" fill="#E0E0E0"/>
<path d="M169.141 119.611C166.726 119.826 164.296 119.826 161.881 119.611C164.296 119.395 166.726 119.395 169.141 119.611Z" fill="#E0E0E0"/>
<path d="M183.649 119.611C181.236 119.826 178.808 119.826 176.395 119.611C178.808 119.395 181.236 119.395 183.649 119.611Z" fill="#E0E0E0"/>
<path d="M198.17 119.611C195.757 119.826 193.329 119.826 190.916 119.611C193.329 119.395 195.757 119.395 198.17 119.611Z" fill="#E0E0E0"/>
<path d="M212.672 119.611C210.259 119.826 207.831 119.826 205.418 119.611C207.831 119.395 210.259 119.395 212.672 119.611Z" fill="#E0E0E0"/>
<path d="M223.699 123.343C223.535 122.106 223.481 120.857 223.537 119.611C223.861 119.934 223.625 119.704 223.693 119.773H222.946H222.242H221.053C220.686 119.79 220.318 119.751 219.963 119.654C220.319 119.566 220.686 119.529 221.053 119.542L222.242 119.505H223.693C223.768 119.58 223.537 119.343 223.861 119.667C223.91 120.895 223.856 122.124 223.699 123.343Z" fill="#E0E0E0"/>
<path d="M223.699 136.722C223.483 134.498 223.483 132.259 223.699 130.036C223.915 132.259 223.915 134.498 223.699 136.722Z" fill="#E0E0E0"/>
<path d="M223.699 150.101C223.483 147.878 223.483 145.638 223.699 143.415C223.915 145.638 223.915 147.878 223.699 150.101Z" fill="#E0E0E0"/>
<path d="M223.699 163.48C223.483 161.255 223.483 159.013 223.699 156.788C223.915 159.013 223.915 161.255 223.699 163.48Z" fill="#E0E0E0"/>
<path d="M184.471 206.797C184.518 207.116 184.466 207.442 184.322 207.731C184.179 208.019 183.95 208.257 183.666 208.412C183.383 208.567 183.059 208.632 182.738 208.598C182.417 208.563 182.114 208.431 181.87 208.22C181.626 208.008 181.453 207.727 181.373 207.414C181.294 207.102 181.313 206.772 181.426 206.47C181.54 206.168 181.744 205.908 182.01 205.725C182.276 205.542 182.592 205.445 182.915 205.447C183.299 205.423 183.678 205.551 183.97 205.803C184.261 206.056 184.441 206.413 184.471 206.797Z" fill="#455A64"/>
<path d="M189.303 206.821C189.35 207.141 189.298 207.467 189.154 207.755C189.01 208.044 188.781 208.282 188.498 208.437C188.215 208.592 187.891 208.657 187.57 208.622C187.249 208.588 186.946 208.456 186.702 208.245C186.458 208.033 186.285 207.752 186.205 207.439C186.126 207.127 186.144 206.797 186.258 206.495C186.372 206.193 186.576 205.933 186.842 205.75C187.108 205.567 187.423 205.47 187.746 205.472C187.937 205.458 188.129 205.482 188.311 205.543C188.492 205.603 188.66 205.699 188.805 205.824C188.949 205.95 189.068 206.102 189.153 206.273C189.239 206.444 189.29 206.631 189.303 206.821Z" fill="#455A64"/>
<path d="M194.154 206.84C194.201 207.159 194.149 207.485 194.005 207.773C193.862 208.062 193.633 208.3 193.35 208.455C193.067 208.61 192.744 208.675 192.423 208.641C192.102 208.607 191.799 208.476 191.555 208.265C191.311 208.055 191.137 207.774 191.057 207.462C190.977 207.149 190.994 206.82 191.107 206.518C191.22 206.216 191.423 205.956 191.688 205.772C191.953 205.588 192.268 205.49 192.591 205.49C192.977 205.465 193.357 205.592 193.65 205.845C193.942 206.097 194.123 206.455 194.154 206.84Z" fill="#455A64"/>
<path d="M320.437 240.291L314.21 240.702L313.363 229.064L322.46 228.368L322.56 229.083C322.971 232.286 324.428 245.373 323.936 247.569C323.382 250.044 320.437 240.291 320.437 240.291Z" fill="#0668B8"/>
<g opacity="0.4">
<path d="M322.081 245.031C322.081 245.031 323.326 248.421 323.874 247.948C324.422 247.475 323.438 234.189 322.491 228.368L322.236 228.405L323.482 243.893C323.482 243.893 322.025 244.353 322.081 245.031Z" fill="white"/>
</g>
<path d="M322.18 228.224C322.2 228.289 322.213 228.356 322.217 228.424C322.217 228.591 322.267 228.778 322.298 228.996C322.361 229.568 322.448 230.24 322.541 231.098C322.741 232.883 322.977 235.346 323.164 238.077C323.351 240.808 323.494 243.277 323.569 245.068C323.569 245.902 323.612 246.611 323.631 247.189C323.631 247.401 323.631 247.594 323.631 247.768C323.631 247.942 323.631 247.967 323.631 247.967C323.624 247.901 323.624 247.834 323.631 247.768C323.631 247.594 323.631 247.407 323.6 247.189C323.6 246.617 323.531 245.908 323.481 245.074C323.388 243.283 323.245 240.814 323.046 238.083C322.846 235.353 322.616 232.896 322.423 231.111C322.342 230.277 322.28 229.574 322.224 228.996C322.224 228.784 322.186 228.598 322.174 228.424C322.161 228.249 322.18 228.224 322.18 228.224Z" fill="#263238"/>
<path d="M323.656 243.874C323.31 243.992 322.98 244.151 322.672 244.347C322.392 244.578 322.137 244.839 321.912 245.124C322.04 244.763 322.276 244.45 322.588 244.228C322.9 244.005 323.273 243.884 323.656 243.88V243.874Z" fill="#263238"/>
<path d="M321.657 240.571C321.657 240.602 321.495 240.783 321.24 240.969C320.985 241.156 320.754 241.286 320.736 241.255C320.717 241.224 320.897 241.044 321.153 240.857C321.408 240.671 321.632 240.54 321.657 240.571Z" fill="#263238"/>
<path d="M321.09 239.663C321.122 239.663 321.01 239.881 320.848 240.092C320.686 240.304 320.524 240.459 320.493 240.441C320.462 240.422 320.567 240.223 320.736 240.005C320.904 239.787 321.059 239.638 321.09 239.663Z" fill="#263238"/>
<path d="M319.945 239.147C319.988 239.147 320.038 239.414 320.069 239.769C320.113 239.974 320.113 240.186 320.069 240.391C319.983 240.195 319.94 239.983 319.945 239.769C319.901 239.564 319.901 239.352 319.945 239.147Z" fill="#263238"/>
<path d="M319.154 239.004C319.307 239.191 319.394 239.422 319.403 239.663C319.463 239.898 319.448 240.146 319.359 240.372C319.311 240.147 319.279 239.918 319.266 239.688C319.209 239.464 319.171 239.235 319.154 239.004Z" fill="#263238"/>
<path d="M320.673 241.038C320.729 241.284 320.746 241.538 320.723 241.79C320.706 242.063 320.666 242.333 320.605 242.599C320.571 242.76 320.519 242.916 320.449 243.065C320.406 243.16 320.328 243.234 320.231 243.271C320.176 243.286 320.117 243.285 320.062 243.269C320.007 243.252 319.958 243.221 319.92 243.177C319.759 242.901 319.699 242.578 319.75 242.263C319.801 241.947 319.96 241.66 320.2 241.448C320.341 241.326 320.503 241.231 320.679 241.168C320.745 241.142 320.815 241.132 320.885 241.137C320.655 241.225 320.444 241.356 320.262 241.523C320.079 241.707 319.951 241.94 319.895 242.195C319.855 242.343 319.845 242.497 319.866 242.649C319.888 242.801 319.94 242.947 320.019 243.078C320.119 243.19 320.25 243.134 320.325 242.997C320.387 242.857 320.437 242.711 320.474 242.562C320.541 242.304 320.589 242.042 320.617 241.778C320.667 241.336 320.648 241.038 320.673 241.038Z" fill="#263238"/>
<path d="M320.723 241.231C320.573 241.336 320.388 241.381 320.206 241.355C320.009 241.346 319.817 241.291 319.646 241.193C319.527 241.136 319.425 241.048 319.351 240.939C319.276 240.83 319.232 240.703 319.222 240.571C319.232 240.495 319.271 240.425 319.332 240.377C319.392 240.329 319.469 240.307 319.546 240.316C319.668 240.324 319.787 240.358 319.895 240.416C320.067 240.501 320.226 240.61 320.368 240.739C320.511 240.845 320.626 240.984 320.704 241.143C320.704 241.143 320.561 241.007 320.306 240.814C320.159 240.703 320 240.609 319.833 240.534C319.671 240.447 319.378 240.397 319.359 240.584C319.341 240.77 319.559 240.951 319.714 241.056C319.868 241.15 320.04 241.21 320.219 241.231C320.386 241.247 320.555 241.247 320.723 241.231Z" fill="#263238"/>
<path d="M319.011 228.691C319.011 228.691 319.011 229.027 319.104 229.549C319.239 230.228 319.555 230.858 320.019 231.372C320.493 231.875 321.096 232.239 321.763 232.423C322.274 232.56 322.61 232.554 322.61 232.578C322.61 232.603 322.529 232.578 322.373 232.578C322.163 232.574 321.954 232.547 321.75 232.498C321.05 232.339 320.414 231.973 319.926 231.447C319.438 230.921 319.121 230.259 319.017 229.549C318.995 229.343 318.995 229.134 319.017 228.927C319.002 228.849 319 228.77 319.011 228.691Z" fill="#263238"/>
<path d="M314.254 230.252C315.043 230.115 315.839 230.023 316.638 229.979C317.434 229.888 318.235 229.843 319.036 229.842C318.247 229.979 317.45 230.073 316.651 230.122C315.855 230.215 315.055 230.259 314.254 230.252Z" fill="#263238"/>
<path d="M321.651 234.14C321.947 235.246 322.042 236.396 321.931 237.536C321.887 237.536 321.881 236.777 321.8 235.838C321.719 234.899 321.607 234.146 321.651 234.14Z" fill="#263238"/>
<path d="M321.458 231.857C321.489 231.857 321.626 231.913 321.807 231.975C321.987 232.037 322.143 232.068 322.143 232.112C322.143 232.156 321.962 232.187 321.757 232.112C321.551 232.037 321.458 231.888 321.458 231.857Z" fill="#263238"/>
<path d="M320.343 231.079C320.343 231.048 320.499 231.117 320.63 231.229C320.76 231.341 320.848 231.453 320.816 231.484C320.785 231.515 320.667 231.446 320.536 231.335C320.406 231.223 320.318 231.111 320.343 231.079Z" fill="#263238"/>
<path d="M319.764 229.885C319.808 229.885 319.814 230.047 319.889 230.209C319.963 230.37 320.063 230.495 320.038 230.526C320.013 230.557 319.845 230.476 319.758 230.265C319.671 230.053 319.727 229.873 319.764 229.885Z" fill="#263238"/>
<path d="M319.472 229.027C319.503 229.027 319.571 229.07 319.615 229.164C319.658 229.257 319.665 229.35 319.615 229.369C319.565 229.388 319.515 229.319 319.465 229.226C319.415 229.133 319.434 229.046 319.472 229.027Z" fill="#263238"/>
<g opacity="0.3">
<path d="M318.699 228.735L319.359 240.372L317.958 240.453V228.691L318.699 228.735Z" fill="black"/>
</g>
<path d="M268.849 197.939C268.849 197.939 261.894 240.795 271.439 242.139C280.985 243.482 318.699 241.734 318.699 241.734L318.189 227.379L285.3 224.984L287.958 198.418L268.849 197.939Z" fill="#263238"/>
<path d="M292.367 239.178L286.14 239.588L285.293 227.951L294.391 227.254L294.49 227.969C294.901 231.173 296.358 244.266 295.866 246.455C295.306 248.906 292.367 239.178 292.367 239.178Z" fill="#0668B8"/>
<g opacity="0.4">
<path d="M293.986 243.918C293.986 243.918 295.231 247.314 295.779 246.835C296.327 246.356 295.343 233.076 294.397 227.254L294.135 227.291L295.381 242.779C295.381 242.779 293.961 243.24 293.986 243.918Z" fill="white"/>
</g>
<path d="M294.117 227.111C294.137 227.176 294.149 227.243 294.154 227.31C294.154 227.478 294.204 227.665 294.229 227.882C294.297 228.455 294.378 229.157 294.478 229.991C294.671 231.77 294.907 234.233 295.1 236.964C295.293 239.694 295.43 242.163 295.499 243.955C295.499 244.788 295.549 245.497 295.567 246.076C295.567 246.294 295.567 246.48 295.567 246.654C295.574 246.72 295.574 246.787 295.567 246.853C295.563 246.787 295.563 246.721 295.567 246.654C295.567 246.48 295.567 246.294 295.53 246.076C295.499 245.504 295.461 244.795 295.418 243.961C295.324 242.17 295.181 239.7 294.976 236.97C294.77 234.239 294.552 231.782 294.353 229.997C294.272 229.164 294.204 228.461 294.154 227.889C294.154 227.671 294.117 227.484 294.098 227.31C294.099 227.243 294.105 227.177 294.117 227.111Z" fill="#263238"/>
<path d="M295.586 242.761C295.245 242.884 294.917 243.042 294.608 243.233C294.328 243.465 294.074 243.726 293.849 244.011C293.956 243.641 294.196 243.322 294.521 243.115C294.822 242.874 295.2 242.748 295.586 242.761Z" fill="#263238"/>
<path d="M293.594 239.47C293.594 239.47 293.425 239.682 293.17 239.868C292.915 240.055 292.691 240.186 292.666 240.154C292.641 240.123 292.834 239.943 293.089 239.756C293.344 239.57 293.569 239.427 293.594 239.47Z" fill="#263238"/>
<path d="M293.027 238.55C293.027 238.55 292.946 238.767 292.778 238.979C292.61 239.19 292.454 239.352 292.423 239.327C292.392 239.302 292.504 239.109 292.672 238.898C292.84 238.686 292.996 238.525 293.027 238.55Z" fill="#263238"/>
<path d="M291.881 238.033C291.968 238.229 292.01 238.441 292.006 238.655C292.049 238.86 292.049 239.072 292.006 239.277C291.962 239.277 291.912 239.01 291.881 238.655C291.834 238.451 291.834 238.238 291.881 238.033Z" fill="#263238"/>
<path d="M291.09 237.89C291.243 238.077 291.331 238.309 291.339 238.55C291.394 238.785 291.379 239.032 291.296 239.259C291.243 239.034 291.209 238.805 291.196 238.575C291.143 238.35 291.107 238.121 291.09 237.89Z" fill="#263238"/>
<path d="M292.603 239.924C292.667 240.17 292.684 240.425 292.653 240.677C292.642 240.949 292.604 241.22 292.541 241.486C292.504 241.646 292.452 241.802 292.386 241.952C292.341 242.045 292.263 242.118 292.168 242.157C292.112 242.173 292.054 242.172 291.998 242.156C291.943 242.139 291.894 242.107 291.856 242.064C291.757 241.885 291.697 241.687 291.682 241.483C291.667 241.279 291.697 241.075 291.769 240.883C291.842 240.692 291.955 240.519 292.101 240.376C292.247 240.233 292.423 240.123 292.616 240.055C292.679 240.029 292.747 240.019 292.815 240.024C292.588 240.117 292.377 240.248 292.193 240.409C292.007 240.592 291.879 240.826 291.825 241.081C291.785 241.229 291.775 241.384 291.797 241.536C291.818 241.687 291.87 241.833 291.95 241.964C292.043 242.076 292.18 242.02 292.249 241.884C292.316 241.747 292.366 241.603 292.398 241.454C292.47 241.196 292.518 240.932 292.541 240.664C292.603 240.21 292.585 239.931 292.603 239.924Z" fill="#263238"/>
<path d="M292.659 240.092C292.509 240.198 292.325 240.242 292.143 240.217C291.945 240.209 291.753 240.154 291.582 240.055C291.463 239.997 291.361 239.909 291.286 239.8C291.211 239.691 291.165 239.565 291.153 239.433C291.164 239.356 291.204 239.286 291.266 239.238C291.327 239.191 291.405 239.169 291.483 239.178C291.602 239.188 291.719 239.222 291.825 239.277C291.999 239.363 292.16 239.472 292.305 239.601C292.448 239.707 292.563 239.845 292.641 240.005C292.641 240.005 292.498 239.868 292.242 239.676C292.094 239.566 291.936 239.473 291.769 239.396C291.607 239.309 291.315 239.259 291.296 239.445C291.277 239.632 291.489 239.812 291.651 239.918C291.802 240.011 291.972 240.07 292.149 240.092C292.319 240.109 292.49 240.109 292.659 240.092Z" fill="#263238"/>
<path d="M290.947 227.578C290.947 227.578 290.947 227.914 291.041 228.436C291.17 229.115 291.485 229.746 291.95 230.258C292.427 230.761 293.031 231.124 293.699 231.31C294.21 231.446 294.546 231.44 294.546 231.465C294.546 231.49 294.459 231.465 294.31 231.465C294.1 231.461 293.891 231.434 293.687 231.384C292.877 231.206 292.156 230.749 291.65 230.093C291.145 229.436 290.887 228.623 290.922 227.795C290.921 227.722 290.93 227.649 290.947 227.578Z" fill="#263238"/>
<path d="M286.19 229.139C286.979 229.002 287.775 228.91 288.575 228.865C289.371 228.775 290.171 228.729 290.972 228.728C290.183 228.869 289.387 228.963 288.587 229.008C287.792 229.102 286.991 229.146 286.19 229.139Z" fill="#263238"/>
<path d="M293.587 233.026C293.752 233.574 293.85 234.14 293.88 234.712C293.952 235.282 293.952 235.859 293.88 236.429C293.836 236.429 293.83 235.664 293.749 234.724C293.668 233.785 293.544 233.033 293.587 233.026Z" fill="#263238"/>
<path d="M293.438 230.762C293.438 230.731 293.606 230.812 293.786 230.874C293.967 230.936 294.123 230.968 294.123 231.011C294.123 231.055 293.942 231.086 293.737 231.011C293.531 230.936 293.388 230.762 293.438 230.762Z" fill="#263238"/>
<path d="M292.28 229.966C292.28 229.935 292.429 230.003 292.56 230.115C292.691 230.227 292.778 230.339 292.753 230.37C292.728 230.401 292.603 230.333 292.473 230.221C292.342 230.109 292.255 229.997 292.28 229.966Z" fill="#263238"/>
<path d="M291.701 228.772C291.738 228.772 291.75 228.934 291.825 229.095C291.9 229.257 291.993 229.381 291.975 229.412C291.956 229.444 291.782 229.363 291.694 229.151C291.607 228.94 291.663 228.766 291.701 228.772Z" fill="#263238"/>
<path d="M291.408 227.914C291.408 227.914 291.508 227.957 291.551 228.05C291.595 228.144 291.601 228.237 291.551 228.256C291.501 228.274 291.452 228.206 291.408 228.113C291.364 228.019 291.371 227.932 291.408 227.914Z" fill="#263238"/>
<g opacity="0.3">
<path d="M290.636 227.621L291.296 239.259L289.895 239.34V227.578L290.636 227.621Z" fill="black"/>
</g>
<path d="M234.994 234.115C235.723 241.61 248.313 242.437 258.948 242.462C273.488 242.493 289.801 242.562 289.801 242.562L289.839 226.956L254.21 227.652C254.21 227.652 285.654 210.497 289.216 204.918C290.285 203.283 290.939 201.413 291.123 199.469C291.306 197.525 291.013 195.565 290.268 193.759L263.811 197.286L243.936 215.362C239.135 219.796 237.709 220.649 235.872 224.306C234.428 227.254 234.627 230.339 234.994 234.115Z" fill="#263238"/>
<path d="M246.738 230.936C248.061 230.523 249.353 230.015 250.605 229.419C251.891 228.908 253.139 228.307 254.341 227.621C253.012 228.026 251.717 228.534 250.468 229.139C249.181 229.643 247.934 230.244 246.738 230.936Z" fill="#455A64"/>
<path d="M249.229 227.111C250.132 227.291 251.053 227.372 251.974 227.354C252.896 227.436 253.823 227.413 254.739 227.285C253.833 227.11 252.91 227.031 251.987 227.049C251.068 226.967 250.143 226.987 249.229 227.111Z" fill="#455A64"/>
<path d="M286.215 242.58C286.121 242.58 286.041 239.103 286.041 234.818C286.041 230.532 286.121 227.049 286.215 227.049C286.308 227.049 286.395 230.526 286.395 234.818C286.395 239.109 286.315 242.58 286.215 242.58Z" fill="#455A64"/>
<path d="M287.834 206.504C287.738 206.603 287.631 206.69 287.516 206.766L286.589 207.456C285.754 208.078 284.54 208.88 283.014 209.894C279.976 211.916 275.735 214.64 271.009 217.595C266.283 220.549 261.987 223.193 258.855 225.059C257.292 225.998 256.016 226.75 255.119 227.254C254.677 227.509 254.328 227.702 254.085 227.82L253.998 227.864H253.961V227.826H253.998L254.11 227.758C254.166 227.727 254.197 227.708 254.204 227.714L270.829 217.358C275.549 214.41 279.808 211.717 282.877 209.745L286.508 207.394L287.491 206.772C287.596 206.671 287.711 206.582 287.834 206.504Z" fill="#455A64"/>
<path d="M289.801 242.58C289.789 242.481 289.789 242.381 289.801 242.282C289.801 242.058 289.801 241.772 289.77 241.417C289.77 240.627 289.72 239.551 289.683 238.164C289.633 235.346 289.559 231.415 289.471 226.8L289.627 226.943C286.57 227.068 283.201 227.161 279.664 227.242C272.554 227.403 266.115 227.478 261.451 227.553L255.935 227.634H254.434C254.258 227.643 254.081 227.643 253.905 227.634C254.077 227.6 254.252 227.583 254.428 227.584L255.928 227.509C257.23 227.453 259.116 227.391 261.445 227.323L279.658 226.918C283.189 226.837 286.551 226.75 289.621 226.645H289.777V226.794C289.814 231.409 289.845 235.346 289.87 238.164V241.417C289.87 241.772 289.87 242.039 289.87 242.282C289.855 242.383 289.832 242.483 289.801 242.58Z" fill="#455A64"/>
<path d="M203.5 195.632L195.573 192.41L192.292 189.2L197.273 188.802L212.167 194.63C212.409 194.725 212.629 194.868 212.813 195.051C212.998 195.233 213.144 195.45 213.242 195.69C213.341 195.93 213.389 196.188 213.385 196.447C213.382 196.706 213.325 196.962 213.22 197.199C213.023 197.642 212.666 197.995 212.221 198.186C211.775 198.378 211.273 198.394 210.816 198.232L203.5 195.632Z" fill="#455A64"/>
<path d="M211.433 196.235C210.669 196.039 209.92 195.789 209.191 195.489L203.873 193.486L198.562 191.471L196.949 190.88C196.735 190.83 196.527 190.759 196.327 190.668C197.114 190.743 197.886 190.934 198.618 191.234C200 191.682 201.893 192.366 203.973 193.156C206.053 193.946 207.915 194.692 209.253 195.252C210.006 195.518 210.735 195.847 211.433 196.235Z" fill="#263238"/>
<path d="M192.292 189.2L194.39 191.247L195.2 188.964L192.292 189.2Z" fill="#263238"/>
<path d="M197.124 188.908C197.031 189.551 196.82 190.171 196.501 190.737C196.293 191.35 195.977 191.92 195.567 192.422C195.66 191.779 195.871 191.159 196.19 190.593C196.4 189.981 196.716 189.411 197.124 188.908Z" fill="#263238"/>
<path d="M197.641 193.442C197.354 194.568 199.54 194.686 199.509 195.339C199.34 195.321 199.17 195.34 199.011 195.396C198.851 195.452 198.706 195.543 198.586 195.662C198.467 195.782 198.376 195.926 198.32 196.086C198.264 196.245 198.244 196.415 198.263 196.583C198.263 197.031 199.222 197.205 199.87 197.243C200.041 197.258 200.202 197.333 200.324 197.455C200.445 197.576 200.521 197.737 200.536 197.908C200.536 198.033 200.536 198.163 200.567 198.312C200.636 199.556 202.859 199.351 202.859 199.351C202.859 199.351 204.807 199.233 205.349 199.102C205.891 198.972 210.717 198.947 210.717 198.947L209.851 190.332L207.622 190.463L204.004 190.562C203.46 190.298 202.963 189.945 202.535 189.517C201.986 189.005 201.51 188.419 201.121 187.776C201.069 187.64 200.976 187.523 200.854 187.443C200.733 187.363 200.589 187.322 200.443 187.328C200.298 187.333 200.157 187.384 200.042 187.474C199.927 187.563 199.843 187.686 199.801 187.826C199.683 188.448 200.455 190.183 202.167 191.614C203.88 193.044 198.917 193.417 197.641 193.424" fill="#FFBE9D"/>
<path d="M250.05 169.676C250.05 169.676 239.266 184.51 236.775 185.089C234.284 185.667 207.609 190.488 207.609 190.488L207.908 199.071C207.908 199.071 242.36 198.107 245.704 195.066C249.048 192.024 259.123 176.561 259.123 176.561L250.05 169.676Z" fill="#FFBE9D"/>
<path d="M242.473 194.804C242.473 194.804 242.541 194.929 242.759 195.059C243.069 195.229 243.422 195.303 243.774 195.271C244.042 195.25 244.301 195.167 244.531 195.028C244.761 194.89 244.956 194.701 245.1 194.475C245.286 194.202 245.393 193.884 245.41 193.555C245.426 193.226 245.351 192.898 245.194 192.609C245.021 192.295 244.737 192.057 244.397 191.943C244.077 191.842 243.731 191.869 243.432 192.018C243.308 192.081 243.198 192.169 243.109 192.276C243.02 192.382 242.954 192.506 242.913 192.639C242.873 192.772 242.86 192.911 242.876 193.05C242.891 193.188 242.934 193.321 243.002 193.442C243.111 193.596 243.268 193.708 243.449 193.762C243.629 193.816 243.822 193.809 243.998 193.741C244.241 193.635 244.297 193.486 244.285 193.48C244.272 193.473 244.179 193.573 243.961 193.629C243.815 193.663 243.663 193.652 243.524 193.598C243.385 193.543 243.266 193.448 243.182 193.324C243.084 193.133 243.065 192.91 243.131 192.705C243.196 192.5 243.34 192.329 243.531 192.229C243.769 192.123 244.038 192.11 244.285 192.192C244.551 192.285 244.773 192.473 244.907 192.721C245.042 192.966 245.108 193.243 245.097 193.522C245.086 193.802 244.999 194.073 244.845 194.307C244.724 194.503 244.562 194.67 244.369 194.797C244.176 194.924 243.958 195.007 243.73 195.041C243.297 195.084 242.86 195.002 242.473 194.804Z" fill="#EB996E"/>
<path d="M262.342 174.191L252.118 191.713L240.337 181.966C240.337 181.966 248.494 168.624 252.354 164.482L262.342 174.191Z" fill="#0668B8"/>
<path d="M246.669 161.192C246.669 161.192 257.143 150.885 266.514 163.729C272.404 171.815 284.571 184.1 288.855 189.542C289.826 190.786 291.346 192.615 290.275 193.759C287.049 197.249 278.251 205.055 261.962 199.227L246.956 178.079C244.316 174.403 245.984 169.9 246.844 164.762L246.669 161.192Z" fill="#0668B8"/>
<path d="M264.054 171.486C264.017 171.486 264.054 171.081 263.899 170.366C263.712 169.362 263.333 168.403 262.784 167.542C261.984 166.258 260.808 165.25 259.415 164.656C257.702 163.953 255.793 163.887 254.035 164.47C253.132 164.787 252.29 165.256 251.545 165.857C250.847 166.411 250.209 167.037 249.639 167.723C248.69 168.904 247.827 170.151 247.055 171.455C246.37 172.568 245.81 173.464 245.399 174.073C245.2 174.378 245.025 174.608 244.913 174.764C244.863 174.847 244.8 174.923 244.727 174.988C244.884 174.644 245.07 174.313 245.281 173.999L246.837 171.324C247.586 169.979 248.437 168.694 249.384 167.48C250.556 165.96 252.121 164.79 253.911 164.096C255.744 163.489 257.736 163.569 259.515 164.32C260.956 164.954 262.162 166.022 262.965 167.374C263.514 168.268 263.866 169.269 263.998 170.31C264.038 170.59 264.055 170.873 264.048 171.156C264.069 171.265 264.071 171.376 264.054 171.486Z" fill="#263238"/>
<g opacity="0.2">
<path d="M263.793 173.681L258.625 194.605L254.104 188.311L263.793 173.681Z" fill="black"/>
</g>
<path d="M255.044 158.697C254.71 159.184 254.335 159.642 253.923 160.066L251.097 163.25C249.988 164.494 249.004 165.626 248.307 166.466C247.953 166.936 247.566 167.381 247.149 167.797C247.417 167.27 247.745 166.775 248.126 166.323C248.749 165.446 249.745 164.277 250.854 163.033C251.962 161.789 253.008 160.694 253.768 159.923C254.155 159.476 254.582 159.066 255.044 158.697Z" fill="#263238"/>
<path d="M252.659 190.786C252.659 190.786 251.981 190.258 250.916 189.381C249.851 188.504 248.363 187.303 246.701 186.009C245.038 184.716 243.512 183.559 242.435 182.688C241.894 182.259 241.464 181.898 241.19 181.643C240.916 181.388 240.742 181.245 240.754 181.226C241.397 181.607 242.011 182.035 242.591 182.507C243.705 183.329 245.243 184.461 246.918 185.754C248.593 187.048 250.032 188.273 251.084 189.206C251.601 189.667 252.006 190.052 252.28 190.332C252.426 190.466 252.553 190.619 252.659 190.786Z" fill="#263238"/>
<path d="M276.377 201.024C276.114 200.787 275.868 200.531 275.642 200.259C275.187 199.756 274.534 199.015 273.774 198.082C272.192 196.216 270.038 193.616 267.772 190.674C265.505 187.732 263.519 184.995 262.118 182.993C261.42 181.991 260.872 181.176 260.493 180.604C260.285 180.318 260.1 180.017 259.938 179.702C260.18 179.96 260.4 180.237 260.598 180.53L262.304 182.868C263.749 184.84 265.754 187.539 268.027 190.488C270.3 193.436 272.417 196.055 273.955 197.952L275.773 200.197C275.998 200.455 276.2 200.732 276.377 201.024Z" fill="#263238"/>
<path d="M278.295 195.507C278.014 195.84 277.677 196.12 277.298 196.335C275.529 197.485 273.463 198.097 271.352 198.095C270.917 198.123 270.481 198.074 270.063 197.952C271.513 197.9 272.954 197.692 274.359 197.33C275.734 196.869 277.054 196.258 278.295 195.507Z" fill="#263238"/>
<path d="M278.562 192.82C278.25 193.221 277.879 193.571 277.46 193.859C275.511 195.352 273.206 196.312 270.773 196.646C270.274 196.741 269.764 196.758 269.26 196.695C270.938 196.43 272.584 195.992 274.173 195.389C275.719 194.682 277.189 193.822 278.562 192.82Z" fill="#263238"/>
<path d="M232.952 146.96C232.406 147.024 231.853 146.968 231.33 146.798C230.808 146.627 230.329 146.345 229.926 145.971C229.121 145.21 228.597 144.199 228.438 143.104C228.361 142.823 228.354 142.528 228.417 142.244C228.48 141.96 228.611 141.696 228.799 141.474C229.228 141.089 230.125 141.331 230.081 141.91C229.864 141.729 229.689 141.504 229.566 141.249C229.444 140.995 229.377 140.718 229.372 140.435C229.376 140.154 229.472 139.881 229.643 139.657C229.815 139.433 230.053 139.27 230.324 139.191C230.461 139.164 230.602 139.165 230.738 139.195C230.874 139.225 231.002 139.283 231.114 139.366C231.226 139.449 231.319 139.554 231.388 139.675C231.457 139.796 231.5 139.93 231.514 140.068C231.2 139.78 230.942 139.437 230.754 139.055C230.664 138.86 230.629 138.645 230.653 138.432C230.678 138.219 230.76 138.017 230.891 137.848C231.103 137.671 231.371 137.575 231.647 137.575C231.924 137.575 232.192 137.671 232.404 137.848C232.826 138.209 233.153 138.668 233.357 139.185C233.175 138.776 233.09 138.33 233.109 137.882C233.127 137.435 233.248 136.997 233.463 136.604C234.172 137.705 235.611 138.122 236.925 138.041C238.224 137.868 239.505 137.581 240.754 137.182C242.014 136.784 243.375 136.843 244.596 137.35C245.841 137.972 246.557 139.278 247.211 140.504C248.743 143.377 250.324 146.419 250.225 149.672" fill="#263238"/>
<path d="M254.646 158.921L246.115 140.044L245.331 139.919C240.038 139.061 237.398 138.352 234.067 142.556C233.362 143.577 232.932 144.761 232.817 145.995C232.703 147.229 232.908 148.472 233.413 149.604C234.621 152.334 236.265 155.898 237.423 157.988C239.49 161.72 243.556 160.271 243.556 160.271L247.659 166.653L254.646 158.921Z" fill="#FFBE9D"/>
<path d="M236.015 151.445C236.057 151.329 236.063 151.203 236.032 151.084C236.002 150.964 235.937 150.856 235.845 150.774C235.753 150.692 235.639 150.638 235.517 150.621C235.395 150.603 235.27 150.623 235.159 150.676C235.048 150.729 234.955 150.814 234.892 150.921C234.83 151.027 234.8 151.149 234.807 151.272C234.814 151.395 234.858 151.513 234.932 151.611C235.006 151.71 235.108 151.784 235.225 151.824C235.38 151.878 235.55 151.868 235.698 151.797C235.846 151.726 235.96 151.599 236.015 151.445Z" fill="#263238"/>
<path d="M234.334 150.823C234.428 150.823 234.646 150.375 235.156 150.095C235.667 149.815 236.19 149.877 236.215 149.784C236.24 149.691 236.103 149.653 235.872 149.616C235.567 149.576 235.257 149.635 234.988 149.784C234.717 149.936 234.499 150.169 234.365 150.45C234.285 150.661 234.285 150.81 234.334 150.823Z" fill="#263238"/>
<path d="M240.511 148.409C240.448 148.516 240.418 148.638 240.425 148.762C240.431 148.885 240.475 149.004 240.55 149.103C240.624 149.201 240.727 149.275 240.844 149.316C240.961 149.356 241.087 149.36 241.207 149.329C241.326 149.297 241.434 149.23 241.515 149.137C241.597 149.044 241.648 148.928 241.664 148.806C241.68 148.683 241.658 148.559 241.603 148.448C241.547 148.338 241.46 148.246 241.352 148.186C241.21 148.106 241.043 148.085 240.886 148.127C240.729 148.168 240.594 148.27 240.511 148.409Z" fill="#263238"/>
<path d="M239.976 148.273C240.069 148.304 240.281 147.825 240.798 147.545C241.314 147.265 241.831 147.327 241.85 147.228C241.869 147.128 241.744 147.103 241.514 147.066C241.208 147.027 240.898 147.086 240.628 147.235C240.358 147.383 240.143 147.614 240.013 147.893C239.926 148.111 239.932 148.26 239.976 148.273Z" fill="#263238"/>
<path d="M240.412 153.728C240.09 153.77 239.777 153.862 239.484 154.001C239.341 154.063 239.216 154.088 239.172 154.001C239.095 153.869 239.056 153.719 239.06 153.566C239.004 153.149 238.955 152.732 238.898 152.322C238.802 151.227 238.593 150.146 238.276 149.094C238.259 150.191 238.351 151.286 238.55 152.365L238.737 153.609C238.736 153.836 238.815 154.057 238.961 154.231C239.008 154.272 239.064 154.301 239.125 154.316C239.185 154.332 239.249 154.332 239.309 154.318C239.396 154.299 239.48 154.268 239.559 154.225C240.113 153.958 240.43 153.771 240.412 153.728Z" fill="#263238"/>
<path d="M243.525 160.215C245.272 159.316 246.712 157.917 247.659 156.197C247.659 156.197 247.958 159.512 244.042 161.173L243.525 160.215Z" fill="#EB996E"/>
<path d="M247.828 144.236C247.89 144.167 250.823 142.432 251.694 145.635C252.448 148.403 249.316 148.876 249.278 148.789C249.241 148.702 247.828 144.236 247.828 144.236Z" fill="#FFBE9D"/>
<path d="M249.851 147.165C249.851 147.165 249.907 147.165 250.001 147.165C250.063 147.17 250.125 147.161 250.184 147.141C250.243 147.121 250.297 147.089 250.343 147.047C250.48 146.874 250.567 146.666 250.593 146.446C250.62 146.227 250.585 146.004 250.493 145.803C250.42 145.57 250.294 145.357 250.125 145.181C250.07 145.108 249.997 145.049 249.913 145.01C249.83 144.971 249.738 144.953 249.646 144.957C249.588 144.962 249.533 144.987 249.492 145.028C249.451 145.069 249.426 145.123 249.422 145.181C249.422 145.268 249.422 145.318 249.422 145.324C249.422 145.331 249.353 145.324 249.328 145.188C249.319 145.116 249.335 145.044 249.372 144.982C249.424 144.9 249.507 144.842 249.602 144.821C249.717 144.803 249.834 144.815 249.943 144.855C250.052 144.895 250.149 144.963 250.225 145.051C250.422 145.238 250.569 145.471 250.654 145.729C250.754 145.96 250.784 146.215 250.74 146.463C250.696 146.711 250.579 146.94 250.405 147.122C250.342 147.168 250.268 147.2 250.19 147.214C250.113 147.228 250.033 147.224 249.957 147.203C249.851 147.228 249.851 147.172 249.851 147.165Z" fill="#EB996E"/>
<path d="M235.586 148.857C235.586 149.15 235.299 149.398 234.963 149.535C234.819 149.613 234.656 149.647 234.492 149.635C234.329 149.623 234.173 149.565 234.042 149.467C233.849 149.255 234.042 148.764 234.571 148.552C235.1 148.341 235.58 148.565 235.586 148.857Z" fill="#263238"/>
<path d="M240.978 146.27C240.922 146.562 240.561 146.749 240.2 146.892C239.839 147.035 239.453 147.197 239.191 147.041C239.073 146.96 239.035 146.78 239.123 146.55C239.247 146.273 239.469 146.052 239.745 145.928C240.027 145.798 240.346 145.778 240.642 145.872C240.891 145.977 240.997 146.127 240.978 146.27Z" fill="#263238"/>
<path d="M242.547 152.54C242.634 152.508 242.865 153.199 242.547 153.97C242.23 154.741 241.551 155.046 241.52 154.959C241.489 154.872 241.943 154.493 242.224 153.827C242.504 153.162 242.441 152.558 242.547 152.54Z" fill="#263238"/>
<path d="M232.417 146.991C233.276 146.987 234.122 146.775 234.882 146.372C235.641 145.968 236.291 145.387 236.775 144.677C237.398 143.726 237.734 142.463 238.774 142.009C239.814 141.555 240.823 142.09 241.819 142.413C242.815 142.737 244.16 142.768 244.652 141.841C245.089 143.818 246.157 145.6 247.697 146.917C247.954 147.166 248.272 147.343 248.618 147.433C248.793 147.472 248.976 147.453 249.138 147.377C249.3 147.302 249.433 147.175 249.515 147.016C249.553 146.845 249.554 146.668 249.519 146.497C249.483 146.325 249.412 146.163 249.309 146.021C248.332 144.211 247.529 142.121 246.551 140.311C246.167 139.671 245.619 139.145 244.963 138.787C244.177 138.397 243.295 138.243 242.423 138.345C240.697 138.317 238.974 138.496 237.292 138.88C235.594 139.274 234.098 140.271 233.083 141.686C232.143 143.129 231.289 145.299 232.311 146.662" fill="#263238"/>
<path d="M137.771 110.592C136.962 110.138 133.655 113.615 133.824 112.545C133.992 111.475 138.481 108.657 137.609 108.191C136.47 107.606 133.095 111.301 132.777 111.599C132.46 111.898 131.918 111.55 132.223 111.295C132.653 110.928 137.093 106.978 135.959 106.393C135.337 106.07 134.714 107.015 134.714 107.015C134.714 107.015 130.903 110.953 130.393 110.66C129.882 110.368 132.012 107.998 132.802 107.239C133.593 106.48 133.462 105.896 132.759 105.896C132.286 105.896 129.789 108.178 129.023 108.944C128.257 109.709 126.221 111.836 126.165 110.15C126.109 108.465 125.274 107.189 124.739 106.972C124.203 106.754 123.63 107.27 123.923 107.737C124.168 108.26 124.322 108.822 124.378 109.398C124.438 109.795 124.422 110.201 124.328 110.592C122.422 112.165 108.761 123.374 107.167 122.895C105.461 122.385 98.9106 101.05 98.9106 101.05L92.2045 120.482C92.2045 120.482 96.9056 134.52 105.604 134.669C116.04 134.844 130.878 116.072 130.878 116.072C132.846 114.877 134.951 113.546 136.015 112.707C138.276 110.921 138.083 110.766 137.771 110.592Z" fill="#FFBE9D"/>
<path d="M48.4933 213.377L45.1495 216.357L45.5792 216.873C47.4908 219.168 55.4609 228.411 57.2666 229.462C59.2778 230.625 54.5269 222.496 54.5269 222.496L55.903 221.208" fill="#0668B8"/>
<g opacity="0.5">
<path d="M47.8892 219.162C48.449 218.426 48.7153 217.508 48.6365 216.587C48.5655 215.676 48.157 214.824 47.4907 214.198L45.274 216.257L47.8892 219.162Z" fill="white"/>
</g>
<path opacity="0.5" d="M56.7311 226.582C56.7311 226.582 58.2442 229.568 57.5842 229.636C56.9242 229.705 48.5119 220.667 45.1309 216.357L45.3239 216.201L55.0375 226.825C55.0375 226.825 56.2828 226.135 56.7311 226.582Z" fill="white"/>
<path d="M45.2305 216.071C45.2305 216.071 45.2678 216.127 45.3425 216.226L45.685 216.637L46.9303 218.129C48.0138 219.373 49.5393 221.103 51.289 222.962C53.0387 224.822 54.6141 226.464 55.7847 227.64L57.1857 229.021L57.5717 229.394L57.7087 229.512C57.674 229.463 57.6343 229.417 57.5904 229.375L57.2168 228.989L55.8532 227.578C54.695 226.383 53.1072 224.729 51.3824 222.869C49.6576 221.009 48.1259 219.311 47.0237 218.073L45.7161 216.605L45.355 216.207C45.3184 216.158 45.2766 216.112 45.2305 216.071Z" fill="#263238"/>
<path d="M54.9565 226.937C55.2568 226.783 55.5718 226.66 55.8968 226.57C56.2317 226.528 56.5706 226.528 56.9055 226.57C56.5868 226.406 56.2184 226.366 55.8719 226.458C55.5193 226.503 55.1946 226.673 54.9565 226.937Z" fill="#263238"/>
<path d="M53.9478 223.503C53.9478 223.541 54.1969 223.503 54.4833 223.472C54.6632 223.456 54.8375 223.401 54.9939 223.311C54.9939 223.273 54.7511 223.311 54.4584 223.342C54.1657 223.373 53.9416 223.466 53.9478 223.503Z" fill="#263238"/>
<path d="M53.7112 222.546C53.7112 222.583 53.9042 222.633 54.1533 222.651C54.4023 222.67 54.6078 222.651 54.614 222.651C54.6203 222.651 54.4148 222.57 54.1657 222.546C53.9167 222.521 53.7112 222.508 53.7112 222.546Z" fill="#263238"/>
<path d="M54.0599 221.432C54.0599 221.432 54.1844 221.669 54.3899 221.899C54.5954 222.129 54.7946 222.297 54.8195 222.272C54.8444 222.247 54.7012 222.042 54.4895 221.805C54.2778 221.569 54.0848 221.432 54.0599 221.432Z" fill="#263238"/>
<path d="M54.4584 220.81C54.4937 221.03 54.5959 221.235 54.7511 221.395C54.9815 221.687 55.243 221.843 55.2617 221.812C55.1392 221.636 55.0039 221.47 54.8569 221.314C54.639 221.053 54.4958 220.81 54.4584 220.81Z" fill="#263238"/>
<path d="M54.8881 223.13C55.0192 223.323 55.1812 223.493 55.3675 223.634C55.5604 223.797 55.769 223.941 55.9902 224.063C56.12 224.146 56.2603 224.211 56.4074 224.256C56.4956 224.29 56.5931 224.29 56.6814 224.256C56.7261 224.228 56.7621 224.188 56.7853 224.141C56.8084 224.094 56.8177 224.041 56.8121 223.989C56.7567 223.803 56.6602 223.633 56.5299 223.49C56.3996 223.347 56.2388 223.236 56.0594 223.163C55.8799 223.091 55.6865 223.06 55.4934 223.073C55.3004 223.085 55.1126 223.141 54.9441 223.236C54.8863 223.264 54.8353 223.304 54.7947 223.354C55.001 223.259 55.2222 223.2 55.4485 223.18C55.6888 223.171 55.9267 223.231 56.1334 223.354C56.3812 223.487 56.5684 223.71 56.6564 223.976C56.6564 224.113 56.5444 224.169 56.4074 224.132C56.2727 224.088 56.1433 224.03 56.0213 223.958C55.8032 223.842 55.595 223.709 55.3987 223.559C55.0873 223.298 54.9068 223.112 54.8881 223.13Z" fill="#263238"/>
<path d="M54.9877 223.298C55.151 223.258 55.2946 223.161 55.3924 223.025C55.5121 222.888 55.5956 222.723 55.6352 222.546C55.6726 222.433 55.6802 222.312 55.6573 222.196C55.6344 222.079 55.5818 221.97 55.5045 221.88C55.4447 221.838 55.3709 221.821 55.2988 221.833C55.2267 221.844 55.162 221.884 55.1184 221.942C55.0463 222.028 54.997 222.131 54.9752 222.241C54.9255 222.411 54.8962 222.586 54.888 222.763C54.8687 222.928 54.8923 223.095 54.9565 223.248C54.9565 223.248 54.9565 223.062 54.9565 222.769C54.9776 222.601 55.013 222.434 55.0624 222.272C55.106 222.104 55.2554 221.874 55.3986 221.986C55.4537 222.062 55.4907 222.15 55.5069 222.243C55.523 222.335 55.518 222.43 55.492 222.521C55.4594 222.682 55.3937 222.834 55.299 222.969C55.1496 223.186 54.9565 223.261 54.9877 223.298Z" fill="#263238"/>
<path d="M47.5468 214.223C47.7323 214.421 47.9069 214.629 48.0699 214.845C48.4526 215.359 48.6815 215.971 48.73 216.609C48.7785 217.248 48.6446 217.887 48.3438 218.453C48.1197 218.888 47.9017 219.112 47.9204 219.131C47.9391 219.149 47.9889 219.087 48.0823 218.981C48.2125 218.832 48.3272 218.669 48.4248 218.496C48.764 217.92 48.919 217.253 48.8689 216.587C48.8188 215.92 48.5661 215.284 48.1446 214.764C48.0214 214.607 47.8816 214.463 47.7274 214.335C47.6215 214.254 47.553 214.217 47.5468 214.223Z" fill="#263238"/>
<path d="M49.5829 219.442C49.8506 219.896 50.1749 220.314 50.5481 220.686C50.8862 221.095 51.2803 221.456 51.7187 221.756C51.7187 221.756 51.2268 221.239 50.6415 220.599C50.0562 219.958 49.6141 219.423 49.5829 219.442Z" fill="#263238"/>
<path d="M48.1445 217.893C48.1072 217.893 48.0761 218.036 48.0076 218.198C47.9391 218.359 47.8581 218.484 47.883 218.515C47.9079 218.546 48.0449 218.434 48.1259 218.248C48.2068 218.061 48.1819 217.887 48.1445 217.893Z" fill="#263238"/>
<path d="M48.3314 216.63C48.294 216.63 48.2566 216.755 48.2504 216.916C48.2442 217.078 48.2504 217.203 48.3065 217.203C48.3625 217.203 48.375 217.078 48.3812 216.923C48.3874 216.767 48.3625 216.63 48.3314 216.63Z" fill="#263238"/>
<path d="M47.8831 215.486C47.8831 215.517 47.9578 215.617 48.0263 215.772C48.0948 215.928 48.1134 216.071 48.1508 216.071C48.1882 216.071 48.2318 215.909 48.1508 215.716C48.0699 215.523 47.9017 215.455 47.8831 215.486Z" fill="#263238"/>
<path d="M47.4845 214.74C47.4534 214.74 47.4534 214.839 47.4845 214.926C47.5157 215.013 47.5779 215.082 47.6091 215.063C47.6402 215.044 47.6091 214.97 47.6091 214.883C47.6091 214.795 47.5219 214.727 47.4845 214.74Z" fill="#263238"/>
<path d="M116.065 235.266L116.464 237.132C116.464 237.132 126.084 237.331 123.992 238.463C122.124 239.47 109.807 241.486 106.781 241.927L106.102 242.02L105.287 237.523L116.065 235.266Z" fill="#0668B8"/>
<g opacity="0.5">
<path d="M110.013 241.15C109.662 240.268 108.996 239.548 108.145 239.128C107.312 238.703 106.35 238.605 105.449 238.854L106.071 241.877L110.013 241.15Z" fill="white"/>
</g>
<path opacity="0.5" d="M121.196 237.405C121.196 237.405 124.608 237.679 124.309 238.288C124.01 238.898 111.65 241.398 106.096 242.02L106.065 241.778L120.517 238.979C120.517 238.979 120.573 237.554 121.196 237.405Z" fill="white"/>
<path d="M105.903 241.815H106.09L106.632 241.734L108.618 241.423C110.293 241.143 112.603 240.733 115.144 240.217C117.684 239.7 119.969 239.19 121.619 238.798L123.574 238.32L124.104 238.176L124.284 238.12L124.091 238.152L123.562 238.264L121.601 238.705C119.944 239.078 117.653 239.576 115.112 240.086C112.572 240.596 110.274 241.025 108.599 241.33L106.625 241.685L106.084 241.784L105.903 241.815Z" fill="#263238"/>
<path d="M120.554 239.159C120.571 238.815 120.63 238.475 120.729 238.145C120.87 237.832 121.043 237.534 121.246 237.256C120.952 237.466 120.728 237.761 120.605 238.101C120.482 238.44 120.464 238.809 120.554 239.159Z" fill="#263238"/>
<path d="M117.03 238.189C117.15 238.048 117.238 237.882 117.285 237.704C117.391 237.424 117.454 237.181 117.416 237.169C117.296 237.31 117.209 237.475 117.161 237.654C117.055 237.934 116.993 238.17 117.03 238.189Z" fill="#263238"/>
<path d="M116.059 237.903C116.059 237.903 116.233 237.772 116.389 237.567C116.545 237.362 116.638 237.181 116.607 237.156C116.576 237.131 116.432 237.287 116.277 237.492C116.121 237.698 116.028 237.878 116.059 237.903Z" fill="#263238"/>
<path d="M115.293 236.982C115.487 237.006 115.684 236.991 115.872 236.939C116.19 236.876 116.439 236.802 116.426 236.765C116.037 236.749 115.649 236.824 115.293 236.982Z" fill="#263238"/>
<path d="M114.957 236.31C115.173 236.376 115.4 236.395 115.624 236.367C115.849 236.339 116.064 236.265 116.258 236.149C116.048 236.159 115.84 236.188 115.635 236.236C115.407 236.239 115.18 236.264 114.957 236.31Z" fill="#263238"/>
<path d="M117.223 237.169C117.46 237.159 117.694 237.109 117.914 237.02C118.161 236.94 118.398 236.835 118.624 236.709C118.765 236.638 118.897 236.55 119.016 236.447C119.088 236.383 119.133 236.294 119.141 236.198C119.143 236.145 119.128 236.091 119.1 236.046C119.071 236 119.029 235.965 118.979 235.943C118.688 235.866 118.378 235.893 118.104 236.019C117.83 236.145 117.609 236.362 117.479 236.634C117.398 236.792 117.353 236.966 117.348 237.144C117.348 237.268 117.348 237.337 117.348 237.337C117.371 237.107 117.436 236.883 117.541 236.677C117.664 236.466 117.843 236.291 118.058 236.174C118.183 236.099 118.322 236.051 118.466 236.032C118.611 236.012 118.758 236.023 118.898 236.062C119.029 236.118 119.01 236.261 118.898 236.354C118.787 236.449 118.666 236.533 118.537 236.603C118.321 236.732 118.093 236.842 117.858 236.932C117.466 237.094 117.223 237.144 117.223 237.169Z" fill="#263238"/>
<path d="M117.391 237.169C117.451 237.006 117.451 236.828 117.391 236.665C117.331 236.489 117.231 236.329 117.099 236.198C117.022 236.111 116.925 236.044 116.817 236.003C116.708 235.962 116.591 235.948 116.476 235.962C116.409 235.991 116.356 236.045 116.328 236.112C116.3 236.18 116.3 236.255 116.327 236.323C116.364 236.432 116.428 236.531 116.513 236.609C116.632 236.747 116.771 236.866 116.924 236.964C117.058 237.065 117.214 237.136 117.379 237.169C117.379 237.169 117.217 237.069 116.98 236.889C116.843 236.781 116.716 236.66 116.601 236.528C116.476 236.404 116.358 236.155 116.526 236.087C116.622 236.078 116.718 236.091 116.808 236.125C116.897 236.16 116.978 236.215 117.043 236.286C117.17 236.401 117.27 236.543 117.335 236.702C117.37 236.855 117.389 237.012 117.391 237.169Z" fill="#263238"/>
<path d="M105.523 238.811C105.523 238.811 105.822 238.718 106.327 238.68C106.979 238.618 107.635 238.743 108.218 239.041C108.802 239.338 109.288 239.796 109.62 240.36C109.754 240.598 109.874 240.843 109.982 241.094C109.982 241.094 109.982 241.013 109.938 240.876C109.881 240.681 109.802 240.493 109.701 240.316C109.381 239.717 108.885 239.23 108.279 238.921C107.674 238.612 106.988 238.495 106.314 238.587C106.103 238.61 105.894 238.653 105.691 238.718C105.586 238.767 105.517 238.805 105.523 238.811Z" fill="#263238"/>
<path d="M111.165 239.818C111.707 239.838 112.25 239.784 112.777 239.657C113.313 239.575 113.836 239.424 114.334 239.209C114.334 239.172 113.624 239.358 112.752 239.526C111.881 239.694 111.158 239.781 111.165 239.818Z" fill="#263238"/>
<path d="M109.041 240.248C109.041 240.279 109.129 240.385 109.234 240.534C109.34 240.683 109.409 240.814 109.44 240.807C109.471 240.801 109.44 240.627 109.34 240.453C109.241 240.279 109.054 240.217 109.041 240.248Z" fill="#263238"/>
<path d="M108.039 239.414C108.039 239.414 108.107 239.545 108.244 239.638C108.381 239.731 108.506 239.775 108.525 239.744C108.543 239.713 108.456 239.613 108.319 239.526C108.182 239.439 108.058 239.383 108.039 239.414Z" fill="#263238"/>
<path d="M106.8 239.19C106.8 239.228 106.955 239.19 107.13 239.221C107.304 239.252 107.429 239.308 107.454 239.277C107.479 239.246 107.354 239.116 107.149 239.091C106.943 239.066 106.781 239.159 106.8 239.19Z" fill="#263238"/>
<path d="M105.94 239.147C105.94 239.147 106.009 239.221 106.102 239.24C106.196 239.259 106.283 239.24 106.289 239.203C106.295 239.165 106.227 239.122 106.127 239.109C106.028 239.097 105.947 239.109 105.94 239.147Z" fill="#263238"/>
<path d="M74.801 146.792C75.3925 147.626 80.0936 182.445 80.0936 182.445L48.4933 213.359L55.903 221.19C55.903 221.19 93.0762 189.891 93.8359 186.302C94.745 182.022 92.2107 149.324 92.2107 149.324L74.801 146.792Z" fill="#EB996E"/>
<path d="M75.3675 165.906H82.2356L73.3314 151.812L75.3675 165.906Z" fill="#263238"/>
<path d="M95.5918 185.3C97.6777 195.389 105.343 237.716 105.343 237.716L115.959 235.85L110.978 182.408C110.86 180.998 110.573 179.607 110.125 178.265L97.9205 141.586L74.8819 126.957C74.6515 126.957 71.1459 136.405 71.6565 142.954C71.8892 145.894 72.8944 148.719 74.5705 151.146C76.0338 153.28 78.0761 156.259 78.5307 156.943C79.2405 157.988 95.5918 185.3 95.5918 185.3Z" fill="#FFBE9D"/>
<path d="M73.8171 126.957C73.8171 126.957 68.8358 140.746 71.5693 147.949C74.3028 155.152 82.2045 167.511 82.2045 167.511L107.111 156.315L95.2805 135.167V131.149L73.8171 126.957Z" fill="#455A64"/>
<path d="M84.1347 166.41C84.0431 166.304 83.9618 166.189 83.8919 166.068L83.2692 165.048C82.7212 164.165 81.9429 162.871 81.0214 161.241C78.5632 157.034 76.5992 152.557 75.1683 147.899C74.421 145.318 73.9575 142.663 73.786 139.981C73.6402 137.791 73.7446 135.592 74.0973 133.425C74.3315 131.965 74.7025 130.53 75.2057 129.14C75.3738 128.642 75.5544 128.275 75.654 128.02C75.7013 127.889 75.764 127.764 75.8408 127.647C75.8112 127.783 75.7696 127.916 75.7162 128.045C75.6353 128.306 75.4734 128.667 75.324 129.177C74.8705 130.573 74.5352 132.005 74.3215 133.457C74.0065 135.606 73.923 137.783 74.0724 139.95C74.258 142.609 74.7255 145.24 75.4672 147.8C76.8966 152.435 78.8235 156.902 81.2144 161.123C82.1048 162.759 82.852 164.065 83.3626 164.973L83.9479 166.024C84.0275 166.144 84.0903 166.274 84.1347 166.41Z" fill="#263238"/>
<path d="M90.7848 163.362C90.6978 163.267 90.6206 163.162 90.5544 163.051C90.3925 162.815 90.187 162.51 89.9317 162.131C89.4025 161.322 88.649 160.153 87.7462 158.685C85.3381 154.891 83.2731 150.89 81.5755 146.73C79.8813 142.545 78.9757 138.083 78.9043 133.569C78.8992 132.206 79.0033 130.846 79.2156 129.501C79.2841 129.022 79.3775 128.655 79.4273 128.406C79.4475 128.278 79.4809 128.153 79.527 128.033C79.5314 128.162 79.5188 128.292 79.4896 128.418C79.4896 128.673 79.39 129.04 79.3402 129.519C79.1762 130.863 79.1075 132.216 79.1347 133.569C79.2702 138.05 80.1999 142.473 81.8806 146.631C83.5783 150.768 85.6108 154.76 87.9579 158.567L90.05 162.062L90.6166 163.02C90.6876 163.126 90.7441 163.241 90.7848 163.362Z" fill="#263238"/>
<path d="M97.8769 159.91C97.8769 159.91 97.7898 159.829 97.6528 159.655L97.0301 158.884C96.5133 158.218 95.7848 157.217 94.9815 155.961C94.1783 154.704 93.2132 153.155 92.248 151.407C91.2829 149.66 90.3302 147.675 89.4211 145.561C88.512 143.446 87.7835 141.362 87.1795 139.459C86.5755 137.556 86.1272 135.814 85.8034 134.34C85.4797 132.866 85.243 131.665 85.1185 130.832C85.0625 130.44 85.0189 130.123 84.9815 129.868C84.9636 129.756 84.9636 129.643 84.9815 129.532C85.0211 129.636 85.0502 129.745 85.0687 129.855C85.1247 130.11 85.187 130.421 85.2679 130.807C85.4298 131.634 85.6913 132.822 86.0463 134.284C86.4012 135.746 86.8869 137.475 87.4909 139.372C88.0948 141.269 88.8545 143.315 89.7449 145.43C90.6353 147.545 91.6129 149.51 92.5407 151.264C93.4685 153.018 94.4087 154.567 95.1995 155.836C95.9903 157.105 96.6752 158.125 97.1609 158.809L97.7026 159.618C97.7733 159.707 97.8319 159.806 97.8769 159.91Z" fill="#263238"/>
<path d="M103.145 157.87C102.943 157.531 102.762 157.18 102.603 156.819C102.267 156.135 101.756 155.164 101.077 153.995C99.7387 151.631 97.5718 148.565 95.4735 144.988C94.4767 143.303 93.6187 141.539 92.9081 139.714C92.3225 138.222 91.9048 136.67 91.6627 135.086C91.5003 134.02 91.4502 132.94 91.5133 131.864C91.5133 131.479 91.5818 131.186 91.6005 130.987C91.6112 130.886 91.6299 130.786 91.6565 130.689C91.6771 131.08 91.6771 131.473 91.6565 131.864C91.6423 132.933 91.7257 134.001 91.9056 135.055C92.1779 136.614 92.6119 138.139 93.2007 139.608C93.9198 141.411 94.7775 143.156 95.7661 144.827C97.8707 148.385 100.013 151.482 101.308 153.883C101.968 155.071 102.447 156.066 102.746 156.763C102.908 157.111 103.008 157.385 103.082 157.578C103.113 157.673 103.134 157.771 103.145 157.87Z" fill="#263238"/>
<path d="M95.8969 121.365L105.206 115.319C105.206 115.319 100.224 96.4102 92.5532 95.8007L92.2107 102.711L95.8969 121.365Z" fill="#263238"/>
<path d="M79.0849 93.35C79.0849 93.35 67.1732 92.0686 70.3675 109.08L73.431 126.982L94.8072 131.174L99.4772 109.566C100.903 103.041 98.2817 99.9183 98.2817 99.9183C97.6554 98.8755 96.8217 97.9721 95.8321 97.2639C94.8425 96.5557 93.7181 96.0577 92.5282 95.8006L79.06 93.35" fill="#263238"/>
<path d="M95.735 103.961C95.5462 104.78 95.5462 105.631 95.735 106.449C95.968 107.336 96.3199 108.188 96.7811 108.981C97.3688 109.963 97.8769 110.99 98.3004 112.054C98.9943 114.05 99.0227 116.216 98.3813 118.23C98.1878 118.832 97.9311 119.411 97.6155 119.959C97.5077 120.166 97.3715 120.356 97.2107 120.525C97.5842 119.762 97.9005 118.972 98.1572 118.162C98.7191 116.191 98.6626 114.096 97.9953 112.159C97.5765 111.113 97.0812 110.098 96.5133 109.124C96.0547 108.302 95.717 107.418 95.5108 106.499C95.383 105.873 95.383 105.228 95.5108 104.602C95.5416 104.376 95.6179 104.158 95.735 103.961Z" fill="#455A64"/>
<path d="M89.6578 117.832C88.7251 118.341 87.7449 118.757 86.7312 119.076C85.7517 119.482 84.7337 119.788 83.6926 119.99C84.6209 119.472 85.602 119.055 86.6192 118.746C87.5972 118.336 88.6157 118.03 89.6578 117.832Z" fill="#455A64"/>
<path d="M91.5694 108.191C91.5205 107.625 91.3257 107.08 91.0038 106.612C90.6818 106.143 90.2439 105.766 89.7325 105.516C89.4329 105.368 89.1145 105.261 88.786 105.199C88.0388 104.739 86.0899 105.081 85.2742 105.417C84.4739 105.786 83.7815 106.353 83.263 107.065C82.76 107.654 82.4074 108.356 82.2356 109.111C82.1514 109.489 82.1542 109.88 82.2437 110.256C82.3332 110.632 82.5072 110.983 82.7524 111.282C83.0057 111.573 83.3486 111.772 83.7272 111.848C84.1059 111.923 84.4989 111.871 84.8446 111.699C84.7106 112.213 84.7106 112.752 84.8446 113.266C84.9177 113.526 85.0876 113.747 85.3194 113.885C85.5511 114.022 85.8269 114.066 86.0899 114.007C86.5569 113.845 86.7126 113.322 86.7686 112.8C86.7999 113.09 86.9401 113.357 87.1608 113.547C87.3816 113.738 87.6664 113.837 87.9579 113.826C88.2053 113.775 88.4289 113.644 88.5934 113.453C88.758 113.261 88.8542 113.021 88.867 112.769C88.8984 112.91 88.9611 113.043 89.0505 113.157C89.14 113.271 89.2538 113.364 89.3838 113.428C89.9318 113.64 90.5171 113.049 90.5357 112.464C90.4841 111.878 90.2487 111.323 89.8633 110.878C90.3959 110.668 90.8481 110.295 91.1548 109.812C91.4614 109.329 91.6066 108.762 91.5694 108.191ZM86.0027 110.287C85.7709 110.441 85.4941 110.513 85.2164 110.492C84.9387 110.471 84.6763 110.357 84.471 110.169C84.2735 109.972 84.1445 109.717 84.1031 109.442C84.0616 109.166 84.1098 108.885 84.2406 108.639C84.3069 108.504 84.4062 108.389 84.5292 108.303C84.6522 108.217 84.795 108.163 84.9442 108.147C85.2146 108.071 85.503 108.092 85.7598 108.206C86.0166 108.319 86.2258 108.518 86.3514 108.769C86.486 109.022 86.5247 109.314 86.4607 109.593C86.3966 109.872 86.234 110.118 86.0027 110.287ZM88.6553 110.747C88.6179 110.921 88.4062 110.996 88.2319 110.99C88.073 110.982 87.9189 110.934 87.7846 110.849C87.6503 110.764 87.5405 110.645 87.466 110.505C87.4287 110.782 87.2914 111.036 87.0799 111.22C87.0491 111.252 87.0111 111.277 86.9689 111.292C86.9267 111.308 86.8816 111.313 86.8371 111.307C86.7063 111.264 86.6877 111.083 86.7126 110.94C86.7968 110.496 86.9965 110.082 87.2916 109.74L87.2294 109.709C87.6952 109.793 88.1272 110.009 88.4747 110.331C88.5388 110.378 88.5892 110.442 88.6209 110.515C88.6526 110.588 88.6644 110.668 88.6553 110.747ZM89.7449 109.398C89.5132 109.552 89.2363 109.624 88.9586 109.603C88.681 109.581 88.4185 109.467 88.2132 109.279C88.0157 109.083 87.8868 108.828 87.8453 108.552C87.8038 108.277 87.852 107.995 87.9828 107.749C88.0485 107.615 88.1477 107.5 88.271 107.415C88.3942 107.33 88.5373 107.278 88.6864 107.264C88.95 107.22 89.2208 107.262 89.4588 107.383C89.6967 107.505 89.8893 107.699 90.008 107.939C90.1266 108.178 90.1651 108.449 90.1178 108.711C90.0704 108.974 89.9397 109.215 89.7449 109.398Z" fill="#FAFAFA"/>
<path d="M92.3477 69.3781C92.9552 70.5671 93.204 71.9068 93.0638 73.2345C92.9704 74.099 92.7337 75.0569 93.2132 75.7847C93.7985 76.6617 95.1746 76.7363 95.7475 77.6507C96.5756 78.932 95.1248 80.7607 95.7848 82.1104C96.2207 83.0185 97.3726 83.286 98.1572 83.9266C98.6871 84.3953 99.0461 85.0265 99.178 85.7211C99.3099 86.4158 99.207 87.1345 98.8857 87.7644C98.3191 88.8653 97.2045 89.5557 96.146 90.1964L93.7176 91.6581C93.3133 91.969 92.8142 92.1315 92.3041 92.1184C91.4137 91.994 90.9965 90.9117 90.187 90.5074C89.1908 90.0098 88.0326 90.7002 86.918 90.7749C86.5016 90.8044 86.0836 90.7442 85.6925 90.5984C85.3013 90.4526 84.9461 90.2245 84.6509 89.9296C84.3557 89.6347 84.1273 89.2798 83.9813 88.8891C83.8353 88.4984 83.7751 88.0809 83.8047 87.6649" fill="#0668B8"/>
<path d="M89.6142 94.8428C89.3464 92.0438 89.116 89.1017 89.116 89.1017C89.116 89.1017 92.659 88.1501 92.9454 83.3793C93.2132 78.8325 91.4573 68.5633 91.4573 68.5633C88.7994 67.7881 85.9678 67.8434 83.3423 68.7217C80.7169 69.6 78.423 71.2593 76.7686 73.4771L79.309 96.1365C79.4018 96.7772 79.6208 97.3931 79.9534 97.9487C80.286 98.5042 80.7257 98.9883 81.2469 99.373C81.768 99.7577 82.3604 100.035 82.9897 100.19C83.619 100.344 84.2727 100.372 84.913 100.273C86.2482 100.152 87.4844 99.519 88.3613 98.5061C89.2382 97.4932 89.6874 96.1799 89.6142 94.8428Z" fill="#FFBE9D"/>
<path d="M91.8309 76.6617C91.844 76.8172 91.7981 76.9719 91.7024 77.0951C91.6067 77.2184 91.4681 77.3013 91.3141 77.3272C91.2379 77.3415 91.1596 77.3403 91.0839 77.3238C91.0082 77.3073 90.9366 77.2758 90.8733 77.2311C90.81 77.1865 90.7564 77.1296 90.7155 77.0638C90.6746 76.998 90.6474 76.9248 90.6354 76.8483C90.6224 76.6919 90.6691 76.5364 90.7661 76.413C90.8631 76.2896 91.0033 76.2073 91.1584 76.1827C91.2342 76.1685 91.3121 76.1697 91.3874 76.1863C91.4627 76.2029 91.5339 76.2345 91.5967 76.2792C91.6595 76.3239 91.7126 76.3809 91.7529 76.4466C91.7931 76.5123 91.8196 76.5855 91.8309 76.6617Z" fill="#263238"/>
<path d="M91.8309 76.0024C91.7624 76.0833 91.2705 75.7909 90.6229 75.8593C89.9753 75.9278 89.5332 76.2947 89.4523 76.2201C89.3713 76.1455 89.4523 76.0397 89.6702 75.8718C89.9323 75.6499 90.256 75.5131 90.598 75.4799C90.9359 75.4473 91.2756 75.5213 91.5693 75.6914C91.781 75.8282 91.862 75.9589 91.8309 76.0024Z" fill="#263238"/>
<path d="M85.0874 77.5387C85.1003 77.6951 85.0536 77.8506 84.9566 77.974C84.8596 78.0974 84.7195 78.1797 84.5643 78.2042C84.4882 78.2175 84.4101 78.2155 84.3348 78.1981C84.2594 78.1808 84.1883 78.1486 84.1257 78.1034C84.063 78.0581 84.01 78.0008 83.9698 77.9348C83.9297 77.8688 83.9032 77.7955 83.8918 77.7191C83.8787 77.5636 83.9246 77.4089 84.0203 77.2856C84.1161 77.1624 84.2546 77.0795 84.4087 77.0535C84.4852 77.0402 84.5636 77.0422 84.6393 77.0595C84.7151 77.0768 84.7866 77.1089 84.8498 77.1541C84.913 77.1992 84.9665 77.2565 85.0073 77.3225C85.0481 77.3886 85.0753 77.4621 85.0874 77.5387Z" fill="#263238"/>
<path d="M85.0874 76.898C85.0189 76.9851 84.527 76.6928 83.8794 76.7612C83.2318 76.8296 82.7897 77.1966 82.7088 77.122C82.6278 77.0473 82.7088 76.9416 82.9267 76.7736C83.1866 76.5482 83.5115 76.4109 83.8545 76.3818C84.1905 76.3479 84.5286 76.422 84.8196 76.5933C85.0376 76.7301 85.1185 76.8607 85.0874 76.898Z" fill="#263238"/>
<path d="M87.9143 81.4822C88.2441 81.3388 88.5918 81.2405 88.9479 81.1899C89.1098 81.1525 89.2655 81.109 89.2841 80.9908C89.2788 80.8187 89.2224 80.652 89.1222 80.5119L88.4996 79.2679C87.9411 78.2464 87.4663 77.1813 87.0799 76.0833C87.7203 77.0563 88.2805 78.0798 88.7549 79.1435C88.9603 79.5727 89.1596 79.977 89.3775 80.3875C89.495 80.5726 89.5475 80.7913 89.527 81.0095C89.507 81.0692 89.4744 81.124 89.4314 81.1701C89.3885 81.2163 89.3361 81.2527 89.2779 81.2769C89.1878 81.3115 89.0936 81.3345 88.9977 81.3454C88.6441 81.4381 88.2799 81.4841 87.9143 81.4822Z" fill="#263238"/>
<path d="M89.116 89.1017C86.9066 89.35 84.6716 88.9819 82.659 88.0381C82.659 88.0381 84.527 91.1481 89.1596 90.2151L89.116 89.1017Z" fill="#EB996E"/>
<path d="M87.7898 83.0621C87.6531 82.92 87.4827 82.8147 87.2944 82.7559C87.106 82.6972 86.9059 82.687 86.7126 82.7262C86.5712 82.7541 86.4368 82.8096 86.3171 82.8897C86.1974 82.9698 86.0948 83.0728 86.0152 83.1927C85.9353 83.3067 85.8925 83.4424 85.8925 83.5815C85.8925 83.7206 85.9353 83.8563 86.0152 83.9702C86.1307 84.0767 86.2755 84.1461 86.4309 84.1694C86.5864 84.1927 86.7452 84.1688 86.8869 84.1008C87.1813 83.9627 87.4457 83.7683 87.6652 83.5286C87.7348 83.47 87.7919 83.3981 87.8334 83.3171C87.8574 83.2812 87.8703 83.239 87.8703 83.1958C87.8703 83.1526 87.8574 83.1104 87.8334 83.0745" fill="#0668B8"/>
<path d="M86.0463 82.1042C86.1521 82.1042 86.2206 82.7946 86.8744 83.23C87.5282 83.6654 88.2692 83.5223 88.2816 83.6156C88.2941 83.7089 88.1322 83.7712 87.8146 83.8085C87.4036 83.8564 86.9888 83.7572 86.6441 83.5286C86.3218 83.303 86.0989 82.9622 86.0214 82.5769C85.9404 82.2908 85.9965 82.1042 86.0463 82.1042Z" fill="#263238"/>
<path d="M90.2306 67.4001C90.4903 68.0946 90.5185 68.8543 90.3109 69.566C90.1033 70.2777 89.6711 70.9034 89.0787 71.3498C87.8707 72.2144 86.2642 72.1771 84.8009 72.4321C83.3377 72.6871 81.6876 73.5642 81.6004 75.0445C81.5444 75.9464 82.0799 76.8732 81.7561 77.7129C81.3763 78.6957 80.0313 78.9569 79.5581 79.921C78.7984 81.4325 80.8034 83.0932 80.5045 84.7602C80.3364 85.7491 79.4024 86.4644 79.1969 87.4472C78.9105 88.8467 80.1309 90.5012 79.1969 91.6084C78.5058 92.4543 77.1421 92.1682 76.1708 91.6581C75.1994 91.1481 74.1596 90.4639 73.101 90.7438C72.4989 91.0071 71.9268 91.3345 71.3949 91.7203C70.8613 92.007 70.2543 92.1285 69.6514 92.0693C69.0484 92.0101 68.4767 91.7729 68.0092 91.3879C67.5416 91.0029 67.1994 90.4876 67.0262 89.9077C66.8529 89.3277 66.8564 88.7094 67.0363 88.1314C67.3737 87.3133 67.8381 86.5534 68.4124 85.8798C68.9855 85.1951 69.2651 84.3122 69.1907 83.4229C68.9933 82.7747 68.6835 82.1663 68.2754 81.6253C68.0744 81.3521 67.9462 81.0325 67.9026 80.6964C67.8591 80.3602 67.9016 80.0185 68.0263 79.7033C68.5992 78.6646 70.3302 78.9507 71.0774 78.0239C72.0985 76.7488 70.2804 74.7771 70.9653 73.2967C71.7436 71.6235 74.8009 72.2766 75.5792 70.6034C75.8657 69.9814 75.7225 69.2724 75.8657 68.613C76.1832 67.1078 77.8893 66.3116 79.4273 66.2183C80.9653 66.125 82.5407 66.492 84.0351 66.2681C84.8694 66.1437 85.6727 65.8451 86.5257 65.6461C87.3511 65.4197 88.2289 65.4789 89.0164 65.814C89.3993 65.9919 89.7105 66.2942 89.8993 66.6715C90.0882 67.0487 90.1435 67.4788 90.0562 67.8915" fill="#0668B8"/>
<path d="M89.2032 70.5723C89.5569 71.376 90.0907 72.0877 90.7632 72.6528C91.4358 73.2179 92.2292 73.6212 93.0824 73.8316C93.2256 72.677 93.2256 71.5092 93.0824 70.3546C92.9282 69.1843 92.4022 68.0943 91.5818 67.2446C91.1707 66.8295 90.6608 66.5255 90.0999 66.3613C89.539 66.197 88.9454 66.1778 88.3751 66.3054" fill="#0668B8"/>
<g opacity="0.3">
<path d="M70.1247 91.5462C70.0241 91.4736 69.9429 91.3775 69.8881 91.2663C69.8183 91.1042 69.7897 90.9273 69.805 90.7515C69.8202 90.5757 69.8787 90.4064 69.9753 90.2586C70.1103 90.0438 70.2992 89.868 70.5232 89.7486C70.7915 89.6011 71.0756 89.4842 71.37 89.4003C71.7111 89.2999 72.0408 89.1644 72.3539 88.996C72.5363 88.9013 72.6973 88.7702 72.8269 88.6108C72.9565 88.4513 73.0519 88.267 73.1073 88.0692C73.1796 87.6241 73.0913 87.1678 72.8582 86.7817C72.6527 86.3712 72.3788 85.9793 72.1982 85.5377C72.0198 85.0558 71.9562 84.5391 72.0124 84.0285C72.0686 83.5178 72.2431 83.0272 72.522 82.5956C72.8167 82.1262 73.2316 81.744 73.7237 81.4884C74.2343 81.2334 74.8134 81.1028 75.3676 80.8664C75.6557 80.7455 75.9179 80.5702 76.1397 80.3502C76.3633 80.1176 76.511 79.8226 76.5631 79.5043C76.5907 78.8776 76.5341 78.25 76.395 77.6383C76.3123 77.0246 76.3939 76.4001 76.6316 75.8282C76.8629 75.2723 77.2014 74.7671 77.6278 74.3417C78.4543 73.5456 79.4666 72.9683 80.5731 72.6623C81.572 72.3795 82.5866 72.1552 83.6117 71.9905C84.5116 71.8465 85.4001 71.6386 86.2705 71.3685C86.9913 71.1461 87.6738 70.8147 88.2941 70.3857C88.7685 70.0666 89.1889 69.674 89.5395 69.2226C89.761 68.9395 89.9432 68.6277 90.0812 68.2958C90.1305 68.1812 90.17 68.0626 90.1995 67.9413C90.1995 67.9413 90.1559 68.0595 90.0563 68.2834C89.9106 68.6096 89.7221 68.9149 89.4959 69.1915C88.6463 70.1974 87.514 70.9255 86.2456 71.2814C85.3787 71.549 84.4945 71.7568 83.5992 71.9034C82.5677 72.0641 81.5468 72.2864 80.5419 72.569C79.4137 72.8798 78.3804 73.4654 77.5344 74.2732C77.0968 74.7114 76.7498 75.2313 76.5133 75.8034C76.2667 76.3925 76.1807 77.0363 76.2642 77.6694C76.4096 78.2801 76.4663 78.9085 76.4323 79.5354C76.3877 79.8283 76.2528 80.1001 76.0463 80.3129C75.8371 80.5185 75.5896 80.6812 75.3177 80.7918C74.7823 81.0344 74.1969 81.165 73.6739 81.4138C73.1619 81.6829 72.7317 82.0847 72.4286 82.5769C72.1399 83.0232 71.9606 83.5313 71.9054 84.0598C71.8503 84.5883 71.9207 85.1223 72.111 85.6185C72.2978 86.085 72.5718 86.4707 72.7773 86.8625C73.0032 87.2354 73.0913 87.6755 73.0263 88.1065C72.9743 88.2918 72.8851 88.4645 72.7641 88.6142C72.6432 88.7639 72.493 88.8874 72.3227 88.9773C72.0171 89.1476 71.6934 89.2832 71.3576 89.3816C71.0613 89.4743 70.7755 89.5973 70.5045 89.7486C70.272 89.8771 70.0768 90.0635 69.9379 90.2898C69.842 90.4453 69.7862 90.6221 69.7753 90.8044C69.7645 90.9867 69.7989 91.1689 69.8756 91.3347C69.9369 91.4274 70.0233 91.5007 70.1247 91.5462Z" fill="white"/>
</g>
<g opacity="0.3">
<path d="M71.2393 77.0163H71.2953L71.4697 77.0474C71.6917 77.092 71.9163 77.1232 72.1421 77.1407C72.499 77.1824 72.8601 77.1699 73.2131 77.1033C73.7007 77.0098 74.1407 76.7504 74.4585 76.3694C74.8194 75.9147 75.0804 75.389 75.2243 74.8268C75.3795 74.1958 75.5666 73.573 75.7847 72.9608C76.0722 72.3035 76.5144 71.7252 77.0737 71.2752C77.6802 70.7923 78.3645 70.4158 79.0973 70.1618C80.5396 69.7404 82.0289 69.5001 83.5307 69.4465C84.2219 69.3843 84.8819 69.3159 85.4983 69.2164C86.0652 69.1212 86.6233 68.9797 87.1671 68.7934C87.9664 68.5395 88.7072 68.1293 89.3464 67.5867C89.5784 67.3867 89.7873 67.1614 89.9691 66.915L89.9255 66.9523L89.8072 67.0829C89.6526 67.2461 89.4883 67.3998 89.3153 67.5432C88.6726 68.067 87.9347 68.4619 87.1422 68.7063C86.601 68.881 86.0473 69.0141 85.4859 69.1044C84.8632 69.2039 84.2405 69.2661 83.5245 69.3221C82.0118 69.3683 80.5113 69.6087 79.06 70.0374C78.3137 70.2954 77.6168 70.6782 76.9989 71.1695C76.4202 71.6333 75.9664 72.234 75.6789 72.9173C75.4567 73.5381 75.2717 74.1716 75.1247 74.8144C74.9861 75.3632 74.736 75.8776 74.39 76.3258C74.0962 76.6897 73.6881 76.9439 73.2318 77.0474C72.8836 77.1178 72.5273 77.1387 72.1733 77.1096C71.8806 77.1096 71.6565 77.0598 71.5008 77.0411L71.2393 77.0163Z" fill="white"/>
</g>
<g opacity="0.3">
<path d="M96.0526 89.5682L96.146 89.5371C96.2319 89.4994 96.3151 89.4558 96.395 89.4065C96.6898 89.2233 96.944 88.9821 97.1422 88.6974C97.4463 88.2747 97.6235 87.7741 97.6528 87.2544C97.6785 86.6131 97.468 85.9847 97.0613 85.4879C96.6596 84.9873 96.096 84.642 95.4673 84.5113C94.9639 84.4841 94.4639 84.4134 93.9729 84.2999C93.8162 84.2462 93.6729 84.1595 93.5525 84.0458C93.4322 83.9321 93.3378 83.7939 93.2755 83.6405C93.2384 83.5241 93.2256 83.4013 93.2381 83.2798C93.2381 83.2798 93.2381 83.3109 93.207 83.3731C93.1868 83.4674 93.1868 83.5649 93.207 83.6592C93.2633 83.8258 93.3563 83.9777 93.4791 84.1036C93.602 84.2296 93.7515 84.3264 93.9168 84.3869C94.4103 84.5162 94.9148 84.5995 95.4237 84.6358C96.0215 84.7647 96.5562 85.0966 96.9368 85.575C97.3228 86.0458 97.5262 86.6398 97.5096 87.2481C97.4837 87.7454 97.3246 88.2266 97.0488 88.6414C96.8622 88.9243 96.6234 89.1691 96.3452 89.3629C96.146 89.4936 96.0526 89.5682 96.0526 89.5682Z" fill="white"/>
</g>
<path d="M77.4099 68.6441C77.5862 67.6679 77.4134 66.6608 76.9217 65.799C76.43 64.9372 75.6507 64.2754 74.72 63.9294C74.3668 63.7896 73.987 63.73 73.608 63.7547C73.229 63.7795 72.8601 63.888 72.5282 64.0724C72.034 64.422 71.6843 64.9394 71.5444 65.5279C71.3764 66.1507 71.3784 66.807 71.5501 67.4288C71.7218 68.0506 72.0569 68.6151 72.5207 69.0638C72.9845 69.5125 73.5601 69.8291 74.1877 69.9806C74.8153 70.1321 75.4721 70.1131 76.0899 69.9254C76.4327 69.8479 76.7496 69.6828 77.0093 69.4462C77.2691 69.2096 77.4629 68.9096 77.5718 68.5757" fill="#0668B8"/>
<path d="M77.6216 67.282C77.6757 67.5476 77.6679 67.822 77.5988 68.0841C77.5297 68.3462 77.4011 68.5889 77.2231 68.7934C76.7 69.5461 75.9404 69.7575 75.9279 69.6767C75.9155 69.5958 76.4946 69.2724 76.9553 68.6068C77.4161 67.9413 77.522 67.2695 77.6216 67.282Z" fill="#455A64"/>
<path d="M96.6805 102.823L82.9381 155.038L148.319 172.209L162.062 119.994L96.6805 102.823Z" fill="#F5F5F5"/>
<path d="M162.055 120.009L161.738 119.934L160.816 119.704L157.267 118.784L143.873 115.307L96.6752 102.979L96.8496 102.873L83.1509 155.083L82.9765 154.878L148.357 172.083L148.188 172.176C152.36 156.458 155.816 143.427 158.226 134.315C159.471 129.762 160.399 126.185 161.046 123.741C161.377 122.497 161.626 121.589 161.8 120.954C161.974 120.32 162.068 119.99 162.068 119.99C162.068 119.99 161.993 120.307 161.831 120.929L161.121 123.704L158.375 134.278C155.99 143.415 152.572 156.489 148.45 172.257L148.419 172.388L148.288 172.35L82.908 155.208L82.7462 155.164L82.7897 155.009L96.5507 102.804L96.588 102.661L96.7312 102.699L143.998 115.195L157.342 118.734L160.86 119.679L161.756 119.922L162.055 120.009Z" fill="#263238"/>
<path d="M97.5416 105.451L85.7311 151.227L146.698 166.923L158.508 121.148L97.5416 105.451Z" fill="#0668B8"/>
<path opacity="0.2" d="M86.0649 152.353L114.764 129.563L123.244 150.767L134.664 143.62L146.85 168.32L86.0649 152.353Z" fill="black"/>
<g opacity="0.2">
<path d="M134.415 131.006C134.167 131.952 133.644 132.804 132.912 133.453C132.179 134.103 131.27 134.52 130.3 134.654C129.33 134.787 128.342 134.63 127.461 134.202C126.58 133.774 125.846 133.095 125.352 132.25C124.858 131.406 124.626 130.434 124.685 129.457C124.744 128.481 125.091 127.544 125.683 126.764C126.276 125.985 127.086 125.399 128.012 125.08C128.938 124.761 129.937 124.724 130.885 124.972C132.149 125.313 133.228 126.137 133.889 127.266C134.549 128.395 134.738 129.738 134.415 131.006Z" fill="black"/>
</g>
<path d="M70.0002 125.377C75.8968 131.423 84.5519 135.155 87.6652 136.367C88.1447 136.299 88.6988 136.212 89.3526 136.075C89.9132 135.959 90.45 135.748 90.9405 135.453C91.5611 135.106 92.1309 134.674 92.6341 134.172C92.7126 134.059 92.8245 133.973 92.9543 133.926C93.084 133.88 93.225 133.875 93.3576 133.913C93.4901 133.951 93.6075 134.029 93.6932 134.137C93.779 134.245 93.8289 134.376 93.8359 134.514C93.8047 135.105 92.7026 136.535 90.8097 137.468C88.9168 138.401 92.1547 139.135 93.3315 139.428C94.5083 139.72 98.0949 140.784 98.3128 141.219C98.5993 141.841 97.9766 142.276 96.806 141.959C95.6354 141.642 92.0799 140.933 91.9554 141.561C91.8309 142.189 97.8334 143.576 97.8334 143.576C97.8334 143.576 99.1596 143.67 99.0413 144.398C98.8296 145.71 92.5594 143.775 91.9679 143.558C91.5569 143.421 91.4012 144.093 91.8495 144.223C92.2979 144.354 97.8645 145.467 97.659 146.817C97.5033 147.843 92.4909 145.256 91.2082 145.666C89.9255 146.077 95.2119 147.24 95.0189 148.217C94.9504 148.584 94.8446 148.839 91.9056 147.731C89.8224 146.844 87.7894 145.843 85.8159 144.733V144.764C85.8159 144.764 54.7884 135.596 58.2193 121.819C61.8619 107.189 62.578 105.846 62.578 105.846L74.0537 108.458C74.0537 108.458 68.9416 124.288 70.0002 125.377Z" fill="#FFBE9D"/>
<path d="M60.8968 109.622C60.8968 109.622 65.8096 93.7294 78.4934 93.5615V95.4959L73.2879 113.534L60.8968 109.622Z" fill="#263238"/>
<path d="M75.8719 105.846C75.8675 106.057 75.834 106.266 75.7723 106.468C75.6851 106.86 75.5481 107.42 75.3426 108.116C74.9379 109.503 74.2903 111.432 73.431 113.596L73.375 113.733L73.238 113.689L70.9653 112.931C68.2193 112.004 65.7349 111.152 63.9416 110.517L61.8245 109.752C61.5594 109.669 61.3029 109.561 61.0587 109.429C61.3328 109.469 61.6019 109.538 61.8619 109.634L64.0101 110.299C65.822 110.878 68.3189 111.699 71.0711 112.62L73.3376 113.385L73.1384 113.478C74.0101 111.326 74.695 109.422 75.1496 108.054L75.6664 106.443C75.7144 106.238 75.7833 106.038 75.8719 105.846Z" fill="#455A64"/>
<path d="M77.0176 102.157C76.9824 101.683 76.9824 101.207 77.0176 100.733C77.0794 99.6096 76.9011 98.4859 76.4946 97.4365C76.05 96.4095 75.2209 95.5969 74.1845 95.1724C73.74 95.035 73.2795 94.9556 72.8146 94.9361C72.8146 94.9361 72.9454 94.8676 73.1945 94.8428C73.5533 94.8114 73.9148 94.8494 74.2592 94.9547C74.823 95.1474 75.3399 95.4563 75.7764 95.8613C76.213 96.2664 76.5595 96.7585 76.7935 97.3059C77.225 98.3979 77.3811 99.5791 77.248 100.746C77.242 101.225 77.1643 101.701 77.0176 102.157Z" fill="#455A64"/>
</svg>
