<?xml version="1.0" encoding="utf-8"?>
<!-- Generator: Adobe Illustrator 24.0.1, SVG Export Plug-In . SVG Version: 6.00 Build 0)  -->
<svg version="1.1" id="Layer_1" xmlns="http://www.w3.org/2000/svg" xmlns:xlink="http://www.w3.org/1999/xlink" x="0px" y="0px"
	 viewBox="0 0 194.03 178.03" style="enable-background:new 0 0 194.03 178.03;" xml:space="preserve">
<style type="text/css">
	.st0{fill:#0668B8;}
	.st1{font-family:'Arial-BoldMT';}
	.st2{font-size:37.6291px;}
	.st3{fill:#FFFFFF;stroke:#0668B8;stroke-width:2;stroke-miterlimit:10;}
	.st4{fill:#FEFEFE;}
	.st5{fill:#FFFFFF;}
</style>
<g>
	<text transform="matrix(1 0 0 1 2.5479 169.9629)" class="st0 st1 st2">SANEMAP</text>
	<circle class="st3" cx="97.74" cy="66.1" r="57.5"/>
	<circle class="st0" cx="97.74" cy="66.1" r="52.84"/>
	<path class="st4" d="M82.2,47.45c-1.29-5.32,6.22-12.43,9.32-13.99c3.11,1.55,10.62,8.67,9.32,13.99
		c-0.91,3.74-4.49,7.77-9.32,7.77S83.11,51.19,82.2,47.45z"/>
	<path class="st5" d="M105.47,93.64c-4.67,0-9.34-0.02-14,0.01c-1.87,0.01-3.35-0.61-4.71-1.96c-6.65-6.6-13.41-13.09-20.05-19.7
		c-1.59-1.58-2.92-3.34-2.87-5.92c0.05-2.62,1.35-4.34,3.32-5.54c2-1.22,5.22-0.62,7.02,1.1c3.94,3.76,7.81,7.58,11.73,11.36
		c2.52,2.43,5,4.92,7.62,7.23c0.68,0.6,1.83,0.88,2.77,0.91c3.97,0.1,7.95,0.07,11.92,0.04c0.5,0,1.33,0.15,1.84-0.35
		c0.78-0.78,0.52-2.77-0.53-3.7c-0.73-0.65-1.6-0.57-3.63-0.5c-4.04,0.13-6.08,0.19-7.17-0.34c-1.61-0.78-2.96-2.49-3.22-4.46
		c-0.21-1.63,0.3-3.59,1.66-4.72c1.09-0.91,2.39-1.04,2.98-1.05c7.32-0.06,14.64-0.22,21.95,0.09c4.02,0.17,7.04,2.6,9.22,6.04
		c2.64,4.16,2.6,8.64,1.3,13.06c-0.73,2.5-2.66,4.44-4.77,6.16c-2.64,2.16-5.72,2.12-8.76,2.22
		C114.55,93.76,110.01,93.64,105.47,93.64z"/>
</g>
</svg>
